<svg width="603" height="449" viewBox="0 0 603 449" fill="none" xmlns="http://www.w3.org/2000/svg">
<path d="M439.685 340.665C497.988 323.801 544.824 294.42 557.026 231.804C567.747 176.826 557.087 108.283 513.407 69.1812C469.969 30.2841 400.631 28.2242 350.531 54.7258C298.468 82.3356 280.808 141.302 226.191 166.49C200.989 178.07 173.283 183.139 145.614 181.235C121.172 179.729 95.5019 170.646 72.1324 182.198C15.66 210.061 48.7508 290.541 79.9262 324.789C128.472 378.129 174.645 355.518 236.526 348.881C305.972 341.473 370.383 360.746 439.685 340.665Z" fill="#294493"/>
<path opacity="0.9" d="M439.685 340.665C497.988 323.801 544.824 294.42 557.026 231.804C567.747 176.826 557.087 108.283 513.407 69.1812C469.969 30.2841 400.631 28.2242 350.531 54.7258C298.468 82.3356 280.808 141.302 226.191 166.49C200.989 178.07 173.283 183.139 145.614 181.235C121.172 179.729 95.5019 170.646 72.1324 182.198C15.66 210.061 48.7508 290.541 79.9262 324.789C128.472 378.129 174.645 355.518 236.526 348.881C305.972 341.473 370.383 360.746 439.685 340.665Z" fill="white"/>
<path d="M301.154 448.792C430.147 448.792 534.717 442.686 534.717 435.155C534.717 427.624 430.147 421.519 301.154 421.519C172.161 421.519 67.5911 427.624 67.5911 435.155C67.5911 442.686 172.161 448.792 301.154 448.792Z" fill="#F5F5F5"/>
<path d="M326.776 366.432H107.656C101.709 366.432 96.8872 371.254 96.8872 377.201V416.291C96.8872 422.239 101.709 427.06 107.656 427.06H326.776C332.724 427.06 337.545 422.239 337.545 416.291V377.201C337.545 371.254 332.724 366.432 326.776 366.432Z" fill="#294493"/>
<path d="M329.318 368.974H110.198C104.251 368.974 99.429 373.795 99.429 379.743V418.833C99.429 424.78 104.251 429.602 110.198 429.602H329.318C335.266 429.602 340.087 424.78 340.087 418.833V379.743C340.087 373.795 335.266 368.974 329.318 368.974Z" fill="#294493"/>
<path opacity="0.6" d="M329.318 368.974H110.198C104.251 368.974 99.429 373.795 99.429 379.743V418.833C99.429 424.78 104.251 429.602 110.198 429.602H329.318C335.266 429.602 340.087 424.78 340.087 418.833V379.743C340.087 373.795 335.266 368.974 329.318 368.974Z" fill="#FAFAFA"/>
<path d="M331.86 371.516H112.74C106.792 371.516 101.971 376.337 101.971 382.285V421.387C101.971 427.334 106.792 432.156 112.74 432.156H331.86C337.807 432.156 342.629 427.334 342.629 421.387V382.285C342.629 376.337 337.807 371.516 331.86 371.516Z" fill="#294493"/>
<path opacity="0.8" d="M331.86 371.516H112.74C106.792 371.516 101.971 376.337 101.971 382.285V421.387C101.971 427.334 106.792 432.156 112.74 432.156H331.86C337.807 432.156 342.629 427.334 342.629 421.387V382.285C342.629 376.337 337.807 371.516 331.86 371.516Z" fill="#FAFAFA"/>
<path d="M283.795 381.767H166.815C165.545 381.767 164.514 382.797 164.514 384.068V388.645C164.514 389.916 165.545 390.946 166.815 390.946H283.795C285.066 390.946 286.096 389.916 286.096 388.645V384.068C286.096 382.797 285.066 381.767 283.795 381.767Z" fill="#294493"/>
<path d="M219.216 397.246H166.815C165.545 397.246 164.514 398.276 164.514 399.547V404.124C164.514 405.395 165.545 406.425 166.815 406.425H219.216C220.487 406.425 221.517 405.395 221.517 404.124V399.547C221.517 398.276 220.487 397.246 219.216 397.246Z" fill="#294493"/>
<path d="M269.81 397.246H229.588C228.317 397.246 227.287 398.276 227.287 399.547V404.124C227.287 405.395 228.317 406.425 229.588 406.425H269.81C271.081 406.425 272.111 405.395 272.111 404.124V399.547C272.111 398.276 271.081 397.246 269.81 397.246Z" fill="#294493"/>
<path d="M307.177 412.726H165.767C165.075 412.726 164.514 413.286 164.514 413.978V414.93C164.514 415.622 165.075 416.183 165.767 416.183H307.177C307.869 416.183 308.43 415.622 308.43 414.93V413.978C308.43 413.286 307.869 412.726 307.177 412.726Z" fill="#294493"/>
<path opacity="0.5" d="M307.177 412.726H165.767C165.075 412.726 164.514 413.286 164.514 413.978V414.93C164.514 415.622 165.075 416.183 165.767 416.183H307.177C307.869 416.183 308.43 415.622 308.43 414.93V413.978C308.43 413.286 307.869 412.726 307.177 412.726Z" fill="#FAFAFA"/>
<path d="M152.219 406.859C154.981 395.254 147.813 383.608 136.209 380.845C124.605 378.083 112.958 385.251 110.196 396.855C107.433 408.459 114.601 420.106 126.205 422.868C137.81 425.631 149.457 418.463 152.219 406.859Z" fill="#294493"/>
<path d="M149.035 401.836C149.035 405.362 147.989 408.809 146.03 411.741C144.071 414.673 141.287 416.958 138.029 418.307C134.772 419.656 131.187 420.009 127.729 419.322C124.27 418.634 121.094 416.936 118.6 414.442C116.107 411.949 114.409 408.772 113.721 405.314C113.033 401.856 113.386 398.271 114.736 395.013C116.085 391.756 118.37 388.971 121.302 387.012C124.234 385.053 127.681 384.008 131.207 384.008C133.554 383.987 135.882 384.434 138.054 385.322C140.226 386.211 142.2 387.523 143.86 389.183C145.52 390.842 146.832 392.816 147.721 394.989C148.609 397.161 149.056 399.489 149.035 401.836Z" fill="#FAFAFA"/>
<path d="M146.879 410.328C145.346 413.144 143.083 415.495 140.327 417.133C137.571 418.771 134.425 419.635 131.219 419.635C128.013 419.635 124.866 418.771 122.11 417.133C119.354 415.495 117.091 413.144 115.559 410.328C120.197 407.239 125.645 405.59 131.219 405.59C136.792 405.59 142.24 407.239 146.879 410.328Z" fill="#294493"/>
<path opacity="0.7" d="M146.879 410.328C145.346 413.144 143.083 415.495 140.327 417.133C137.571 418.771 134.425 419.635 131.219 419.635C128.013 419.635 124.866 418.771 122.11 417.133C119.354 415.495 117.091 413.144 115.559 410.328C120.197 407.239 125.645 405.59 131.219 405.59C136.792 405.59 142.24 407.239 146.879 410.328Z" fill="#FAFAFA"/>
<path d="M131.207 403.679C135.591 403.679 139.145 400.125 139.145 395.74C139.145 391.356 135.591 387.802 131.207 387.802C126.822 387.802 123.268 391.356 123.268 395.74C123.268 400.125 126.822 403.679 131.207 403.679Z" fill="#294493"/>
<path opacity="0.7" d="M131.207 403.679C135.591 403.679 139.145 400.125 139.145 395.74C139.145 391.356 135.591 387.802 131.207 387.802C126.822 387.802 123.268 391.356 123.268 395.74C123.268 400.125 126.822 403.679 131.207 403.679Z" fill="#FAFAFA"/>
<path d="M326.776 296.275H107.656C101.709 296.275 96.8872 301.097 96.8872 307.044V346.134C96.8872 352.082 101.709 356.903 107.656 356.903H326.776C332.724 356.903 337.545 352.082 337.545 346.134V307.044C337.545 301.097 332.724 296.275 326.776 296.275Z" fill="#294493"/>
<path d="M329.318 298.817H110.198C104.251 298.817 99.429 303.638 99.429 309.586V348.688C99.429 354.636 104.251 359.457 110.198 359.457H329.318C335.266 359.457 340.087 354.636 340.087 348.688V309.586C340.087 303.638 335.266 298.817 329.318 298.817Z" fill="#294493"/>
<path opacity="0.6" d="M329.318 298.817H110.198C104.251 298.817 99.429 303.638 99.429 309.586V348.688C99.429 354.636 104.251 359.457 110.198 359.457H329.318C335.266 359.457 340.087 354.636 340.087 348.688V309.586C340.087 303.638 335.266 298.817 329.318 298.817Z" fill="#FAFAFA"/>
<path d="M331.86 301.359H112.74C106.792 301.359 101.971 306.18 101.971 312.128V351.218C101.971 357.165 106.792 361.987 112.74 361.987H331.86C337.807 361.987 342.629 357.165 342.629 351.218V312.128C342.629 306.18 337.807 301.359 331.86 301.359Z" fill="#294493"/>
<path opacity="0.8" d="M331.86 301.359H112.74C106.792 301.359 101.971 306.18 101.971 312.128V351.218C101.971 357.165 106.792 361.987 112.74 361.987H331.86C337.807 361.987 342.629 357.165 342.629 351.218V312.128C342.629 306.18 337.807 301.359 331.86 301.359Z" fill="#FAFAFA"/>
<path d="M201.677 311.61H166.815C165.545 311.61 164.514 312.64 164.514 313.911V318.488C164.514 319.759 165.545 320.789 166.815 320.789H201.677C202.948 320.789 203.978 319.759 203.978 318.488V313.911C203.978 312.64 202.948 311.61 201.677 311.61Z" fill="#294493"/>
<path d="M238.321 311.61H211.398C210.127 311.61 209.097 312.64 209.097 313.911V318.488C209.097 319.759 210.127 320.789 211.398 320.789H238.321C239.592 320.789 240.622 319.759 240.622 318.488V313.911C240.622 312.64 239.592 311.61 238.321 311.61Z" fill="#294493"/>
<path d="M289.216 327.089H166.815C165.545 327.089 164.514 328.119 164.514 329.39V333.968C164.514 335.238 165.545 336.269 166.815 336.269H289.216C290.487 336.269 291.517 335.238 291.517 333.968V329.39C291.517 328.119 290.487 327.089 289.216 327.089Z" fill="#294493"/>
<path d="M251.114 342.569H165.767C165.075 342.569 164.514 343.13 164.514 343.821V344.773C164.514 345.465 165.075 346.026 165.767 346.026H251.114C251.806 346.026 252.367 345.465 252.367 344.773V343.821C252.367 343.13 251.806 342.569 251.114 342.569Z" fill="#294493"/>
<path opacity="0.5" d="M251.114 342.569H165.767C165.075 342.569 164.514 343.13 164.514 343.821V344.773C164.514 345.465 165.075 346.026 165.767 346.026H251.114C251.806 346.026 252.367 345.465 252.367 344.773V343.821C252.367 343.13 251.806 342.569 251.114 342.569Z" fill="#FAFAFA"/>
<path d="M152.223 336.705C154.985 325.101 147.817 313.454 136.213 310.692C124.609 307.93 112.962 315.097 110.2 326.702C107.437 338.306 114.605 349.953 126.209 352.715C137.814 355.478 149.46 348.31 152.223 336.705Z" fill="#294493"/>
<path d="M149.035 331.679C149.035 335.205 147.989 338.652 146.03 341.584C144.071 344.516 141.287 346.801 138.029 348.15C134.772 349.499 131.187 349.853 127.729 349.165C124.27 348.477 121.094 346.779 118.6 344.285C116.107 341.792 114.409 338.615 113.721 335.157C113.033 331.699 113.386 328.114 114.736 324.856C116.085 321.599 118.37 318.814 121.302 316.855C124.234 314.896 127.681 313.851 131.207 313.851C133.554 313.83 135.882 314.277 138.054 315.165C140.226 316.054 142.2 317.366 143.86 319.026C145.52 320.685 146.832 322.659 147.721 324.832C148.609 327.004 149.056 329.332 149.035 331.679Z" fill="#FAFAFA"/>
<path d="M146.879 340.171C145.346 342.987 143.083 345.338 140.327 346.976C137.571 348.614 134.425 349.478 131.219 349.478C128.013 349.478 124.866 348.614 122.11 346.976C119.354 345.338 117.091 342.987 115.559 340.171C120.197 337.082 125.645 335.433 131.219 335.433C136.792 335.433 142.24 337.082 146.879 340.171Z" fill="#294493"/>
<path opacity="0.7" d="M146.879 340.171C145.346 342.987 143.083 345.338 140.327 346.976C137.571 348.614 134.425 349.478 131.219 349.478C128.013 349.478 124.866 348.614 122.11 346.976C119.354 345.338 117.091 342.987 115.559 340.171C120.197 337.082 125.645 335.433 131.219 335.433C136.792 335.433 142.24 337.082 146.879 340.171Z" fill="#FAFAFA"/>
<path d="M131.207 333.522C135.591 333.522 139.145 329.968 139.145 325.584C139.145 321.199 135.591 317.645 131.207 317.645C126.822 317.645 123.268 321.199 123.268 325.584C123.268 329.968 126.822 333.522 131.207 333.522Z" fill="#294493"/>
<path opacity="0.7" d="M131.207 333.522C135.591 333.522 139.145 329.968 139.145 325.584C139.145 321.199 135.591 317.645 131.207 317.645C126.822 317.645 123.268 321.199 123.268 325.584C123.268 329.968 126.822 333.522 131.207 333.522Z" fill="#FAFAFA"/>
<path d="M326.776 226.118H107.656C101.709 226.118 96.8872 230.94 96.8872 236.888V275.989C96.8872 281.937 101.709 286.759 107.656 286.759H326.776C332.724 286.759 337.545 281.937 337.545 275.989V236.888C337.545 230.94 332.724 226.118 326.776 226.118Z" fill="#294493"/>
<path d="M329.318 228.66H110.198C104.251 228.66 99.429 233.482 99.429 239.429V278.519C99.429 284.467 104.251 289.288 110.198 289.288H329.318C335.266 289.288 340.087 284.467 340.087 278.519V239.429C340.087 233.482 335.266 228.66 329.318 228.66Z" fill="#294493"/>
<path opacity="0.6" d="M329.318 228.66H110.198C104.251 228.66 99.429 233.482 99.429 239.429V278.519C99.429 284.467 104.251 289.288 110.198 289.288H329.318C335.266 289.288 340.087 284.467 340.087 278.519V239.429C340.087 233.482 335.266 228.66 329.318 228.66Z" fill="#FAFAFA"/>
<path d="M331.86 231.202H112.74C106.792 231.202 101.971 236.023 101.971 241.971V281.073C101.971 287.021 106.792 291.842 112.74 291.842H331.86C337.807 291.842 342.629 287.021 342.629 281.073V241.971C342.629 236.023 337.807 231.202 331.86 231.202Z" fill="#294493"/>
<path opacity="0.8" d="M331.86 231.202H112.74C106.792 231.202 101.971 236.023 101.971 241.971V281.073C101.971 287.021 106.792 291.842 112.74 291.842H331.86C337.807 291.842 342.629 287.021 342.629 281.073V241.971C342.629 236.023 337.807 231.202 331.86 231.202Z" fill="#FAFAFA"/>
<path d="M282.928 241.453H166.815C165.545 241.453 164.514 242.483 164.514 243.754V248.331C164.514 249.602 165.545 250.632 166.815 250.632H282.928C284.199 250.632 285.229 249.602 285.229 248.331V243.754C285.229 242.483 284.199 241.453 282.928 241.453Z" fill="#294493"/>
<path d="M243.838 256.933H166.815C165.545 256.933 164.514 257.963 164.514 259.233V263.811C164.514 265.082 165.545 266.112 166.815 266.112H243.838C245.109 266.112 246.139 265.082 246.139 263.811V259.233C246.139 257.963 245.109 256.933 243.838 256.933Z" fill="#294493"/>
<path d="M262.413 256.933H255.258C253.987 256.933 252.957 257.963 252.957 259.233V263.811C252.957 265.082 253.987 266.112 255.258 266.112H262.413C263.684 266.112 264.714 265.082 264.714 263.811V259.233C264.714 257.963 263.684 256.933 262.413 256.933Z" fill="#294493"/>
<path d="M227.889 272.412H165.767C165.075 272.412 164.514 272.973 164.514 273.665V274.616C164.514 275.308 165.075 275.869 165.767 275.869H227.889C228.581 275.869 229.142 275.308 229.142 274.616V273.665C229.142 272.973 228.581 272.412 227.889 272.412Z" fill="#294493"/>
<path opacity="0.5" d="M227.889 272.412H165.767C165.075 272.412 164.514 272.973 164.514 273.665V274.616C164.514 275.308 165.075 275.869 165.767 275.869H227.889C228.581 275.869 229.142 275.308 229.142 274.616V273.665C229.142 272.973 228.581 272.412 227.889 272.412Z" fill="#FAFAFA"/>
<path d="M308.201 272.412H236.972C236.28 272.412 235.719 272.973 235.719 273.665V274.616C235.719 275.308 236.28 275.869 236.972 275.869H308.201C308.893 275.869 309.454 275.308 309.454 274.616V273.665C309.454 272.973 308.893 272.412 308.201 272.412Z" fill="#294493"/>
<path opacity="0.5" d="M308.201 272.412H236.972C236.28 272.412 235.719 272.973 235.719 273.665V274.616C235.719 275.308 236.28 275.869 236.972 275.869H308.201C308.893 275.869 309.454 275.308 309.454 274.616V273.665C309.454 272.973 308.893 272.412 308.201 272.412Z" fill="#FAFAFA"/>
<path d="M146.481 276.789C154.916 268.355 154.916 254.679 146.481 246.244C138.047 237.809 124.371 237.809 115.936 246.244C107.501 254.679 107.501 268.355 115.936 276.789C124.371 285.224 138.047 285.224 146.481 276.789Z" fill="#294493"/>
<path d="M149.035 261.522C149.035 265.048 147.989 268.495 146.03 271.427C144.071 274.359 141.287 276.644 138.029 277.993C134.772 279.343 131.187 279.696 127.729 279.008C124.27 278.32 121.094 276.622 118.6 274.129C116.107 271.635 114.409 268.459 113.721 265C113.033 261.542 113.386 257.957 114.736 254.7C116.085 251.442 118.37 248.657 121.302 246.698C124.234 244.739 127.681 243.694 131.207 243.694C133.554 243.673 135.882 244.12 138.054 245.008C140.226 245.897 142.2 247.209 143.86 248.869C145.52 250.529 146.832 252.502 147.721 254.675C148.609 256.847 149.056 259.175 149.035 261.522Z" fill="#FAFAFA"/>
<path d="M146.879 270.015C145.346 272.831 143.083 275.181 140.327 276.819C137.571 278.457 134.425 279.322 131.219 279.322C128.013 279.322 124.866 278.457 122.11 276.819C119.354 275.181 117.091 272.831 115.559 270.015C120.197 266.925 125.645 265.277 131.219 265.277C136.792 265.277 142.24 266.925 146.879 270.015Z" fill="#294493"/>
<path opacity="0.7" d="M146.879 270.015C145.346 272.831 143.083 275.181 140.327 276.819C137.571 278.457 134.425 279.322 131.219 279.322C128.013 279.322 124.866 278.457 122.11 276.819C119.354 275.181 117.091 272.831 115.559 270.015C120.197 266.925 125.645 265.277 131.219 265.277C136.792 265.277 142.24 266.925 146.879 270.015Z" fill="#FAFAFA"/>
<path d="M139.145 255.378C139.143 256.948 138.675 258.482 137.801 259.786C136.928 261.089 135.687 262.105 134.236 262.704C132.786 263.303 131.19 263.458 129.651 263.151C128.112 262.843 126.698 262.086 125.589 260.975C124.48 259.865 123.725 258.45 123.42 256.911C123.115 255.371 123.273 253.776 123.874 252.326C124.475 250.876 125.492 249.637 126.798 248.765C128.103 247.893 129.637 247.428 131.207 247.428C132.25 247.428 133.283 247.634 134.247 248.033C135.211 248.433 136.087 249.019 136.824 249.757C137.562 250.496 138.146 251.372 138.544 252.337C138.943 253.301 139.147 254.335 139.145 255.378Z" fill="#294493"/>
<path opacity="0.7" d="M139.145 255.378C139.143 256.948 138.675 258.482 137.801 259.786C136.928 261.089 135.687 262.105 134.236 262.704C132.786 263.303 131.19 263.458 129.651 263.151C128.112 262.843 126.698 262.086 125.589 260.975C124.48 259.865 123.725 258.45 123.42 256.911C123.115 255.371 123.273 253.776 123.874 252.326C124.475 250.876 125.492 249.637 126.798 248.765C128.103 247.893 129.637 247.428 131.207 247.428C132.25 247.428 133.283 247.634 134.247 248.033C135.211 248.433 136.087 249.019 136.824 249.757C137.562 250.496 138.146 251.372 138.544 252.337C138.943 253.301 139.147 254.335 139.145 255.378Z" fill="#FAFAFA"/>
<path d="M157.01 81.5886H151.517V82.7932H157.01V81.5886Z" fill="#294493"/>
<path d="M142.819 81.5886H129.833V82.7932H142.819V81.5886Z" fill="#294493"/>
<path d="M326.776 85.8047H107.656C101.709 85.8047 96.8872 90.6262 96.8872 96.5739V135.676C96.8872 141.623 101.709 146.445 107.656 146.445H326.776C332.724 146.445 337.545 141.623 337.545 135.676V96.5739C337.545 90.6262 332.724 85.8047 326.776 85.8047Z" fill="#294493"/>
<path d="M329.318 88.3464H110.198C104.251 88.3464 99.429 93.168 99.429 99.1157V138.218C99.429 144.165 104.251 148.987 110.198 148.987H329.318C335.266 148.987 340.087 144.165 340.087 138.218V99.1157C340.087 93.168 335.266 88.3464 329.318 88.3464Z" fill="#294493"/>
<path opacity="0.6" d="M329.318 88.3464H110.198C104.251 88.3464 99.429 93.168 99.429 99.1157V138.218C99.429 144.165 104.251 148.987 110.198 148.987H329.318C335.266 148.987 340.087 144.165 340.087 138.218V99.1157C340.087 93.168 335.266 88.3464 329.318 88.3464Z" fill="#FAFAFA"/>
<path d="M331.86 90.8882H112.74C106.792 90.8882 101.971 95.7098 101.971 101.657V140.759C101.971 146.707 106.792 151.529 112.74 151.529H331.86C337.807 151.529 342.629 146.707 342.629 140.759V101.657C342.629 95.7098 337.807 90.8882 331.86 90.8882Z" fill="#294493"/>
<path opacity="0.8" d="M331.86 90.8882H112.74C106.792 90.8882 101.971 95.7098 101.971 101.657V140.759C101.971 146.707 106.792 151.529 112.74 151.529H331.86C337.807 151.529 342.629 146.707 342.629 140.759V101.657C342.629 95.7098 337.807 90.8882 331.86 90.8882Z" fill="#FAFAFA"/>
<path d="M273.351 101.139H166.815C165.545 101.139 164.514 102.17 164.514 103.44V108.018C164.514 109.288 165.545 110.319 166.815 110.319H273.351C274.622 110.319 275.652 109.288 275.652 108.018V103.44C275.652 102.17 274.622 101.139 273.351 101.139Z" fill="#294493"/>
<path d="M310.092 116.619H166.815C165.545 116.619 164.514 117.649 164.514 118.92V123.497C164.514 124.768 165.545 125.798 166.815 125.798H310.092C311.363 125.798 312.393 124.768 312.393 123.497V118.92C312.393 117.649 311.363 116.619 310.092 116.619Z" fill="#294493"/>
<path d="M204.869 132.098H165.767C165.075 132.098 164.514 132.659 164.514 133.351V134.303C164.514 134.994 165.075 135.555 165.767 135.555H204.869C205.561 135.555 206.122 134.994 206.122 134.303V133.351C206.122 132.659 205.561 132.098 204.869 132.098Z" fill="#294493"/>
<path opacity="0.5" d="M204.869 132.098H165.767C165.075 132.098 164.514 132.659 164.514 133.351V134.303C164.514 134.994 165.075 135.555 165.767 135.555H204.869C205.561 135.555 206.122 134.994 206.122 134.303V133.351C206.122 132.659 205.561 132.098 204.869 132.098Z" fill="#FAFAFA"/>
<path d="M152.222 126.221C154.984 114.617 147.817 102.97 136.212 100.208C124.608 97.4454 112.961 104.613 110.199 116.218C107.436 127.822 114.604 139.469 126.209 142.231C137.813 144.993 149.46 137.826 152.222 126.221Z" fill="#294493"/>
<path d="M149.035 121.209C149.035 124.735 147.989 128.182 146.03 131.114C144.071 134.045 141.287 136.33 138.029 137.68C134.772 139.029 131.187 139.382 127.729 138.694C124.27 138.006 121.094 136.308 118.6 133.815C116.107 131.322 114.409 128.145 113.721 124.687C113.033 121.228 113.386 117.644 114.736 114.386C116.085 111.128 118.37 108.344 121.302 106.385C124.234 104.426 127.681 103.38 131.207 103.38C133.551 103.369 135.874 103.823 138.043 104.715C140.211 105.607 142.18 106.919 143.838 108.577C145.496 110.235 146.809 112.205 147.701 114.373C148.593 116.541 149.046 118.864 149.035 121.209Z" fill="#FAFAFA"/>
<path d="M146.879 129.701C145.346 132.517 143.083 134.868 140.327 136.506C137.571 138.143 134.425 139.008 131.219 139.008C128.013 139.008 124.866 138.143 122.11 136.506C119.354 134.868 117.091 132.517 115.559 129.701C120.197 126.611 125.645 124.963 131.219 124.963C136.792 124.963 142.24 126.611 146.879 129.701Z" fill="#294493"/>
<path opacity="0.7" d="M146.879 129.701C145.346 132.517 143.083 134.868 140.327 136.506C137.571 138.143 134.425 139.008 131.219 139.008C128.013 139.008 124.866 138.143 122.11 136.506C119.354 134.868 117.091 132.517 115.559 129.701C120.197 126.611 125.645 124.963 131.219 124.963C136.792 124.963 142.24 126.611 146.879 129.701Z" fill="#FAFAFA"/>
<path d="M131.207 123.04C135.591 123.04 139.145 119.486 139.145 115.101C139.145 110.717 135.591 107.163 131.207 107.163C126.822 107.163 123.268 110.717 123.268 115.101C123.268 119.486 126.822 123.04 131.207 123.04Z" fill="#294493"/>
<path opacity="0.7" d="M131.207 123.04C135.591 123.04 139.145 119.486 139.145 115.101C139.145 110.717 135.591 107.163 131.207 107.163C126.822 107.163 123.268 110.717 123.268 115.101C123.268 119.486 126.822 123.04 131.207 123.04Z" fill="#FAFAFA"/>
<path d="M480.799 248.283L472.896 252.391L481.75 259.27C481.75 259.27 487.701 254.282 485.364 250.837L480.799 248.283Z" fill="#E4897B"/>
<path d="M468.379 260.763L475.932 266.015L481.75 259.269L472.896 252.391L468.379 260.763Z" fill="#E4897B"/>
<path d="M483.858 179.97C484.942 181.391 485.87 182.668 486.809 184.053C487.749 185.439 488.64 186.776 489.532 188.149C491.291 190.92 492.965 193.763 494.507 196.678C496.088 199.623 497.52 202.646 498.795 205.736L499.747 208.146L500.602 210.555C500.903 211.35 501.132 212.193 501.385 213.024L501.759 214.229L501.843 214.542L501.988 215.06C502.08 215.434 502.152 215.812 502.204 216.193C502.484 218.475 502.321 220.79 501.723 223.011C501.278 224.79 500.71 226.537 500.024 228.239C498.751 231.358 497.27 234.388 495.591 237.309C492.374 242.964 488.712 248.353 484.641 253.427L479.1 249.813C481.762 244.26 484.364 238.538 486.641 232.949C487.756 230.22 488.725 227.433 489.544 224.601C489.921 223.33 490.207 222.034 490.399 220.722C490.556 219.87 490.556 218.996 490.399 218.144C490.399 218.144 490.399 218.216 490.399 218.144L490.303 217.903L489.905 216.903C489.652 216.241 489.411 215.59 489.098 214.928L488.231 212.952L487.279 210.965C485.962 208.338 484.549 205.728 483.039 203.135C481.509 200.557 479.931 197.979 478.22 195.449C476.51 192.919 474.811 190.354 473.197 188.029L483.858 179.97Z" fill="#E4897B"/>
<path d="M500.313 198.46L480.473 212.374C480.473 212.374 479.268 209.772 477.594 205.977C476.233 202.954 474.534 199.183 472.848 195.377C472.161 193.835 471.487 192.293 470.824 190.787C466.235 180.331 471.595 172.802 481.015 174.2C489.315 175.44 500.313 198.46 500.313 198.46Z" fill="#263238"/>
<path d="M478.546 183.981C478.931 187.715 478.967 199.268 477.594 205.977C476.233 202.954 474.534 199.183 472.848 195.377L478.546 183.981Z" fill="#294493"/>
<path opacity="0.8" d="M478.546 183.981C478.931 187.715 478.967 199.268 477.594 205.977C476.233 202.954 474.534 199.183 472.848 195.377L478.546 183.981Z" fill="#294493"/>
<g opacity="0.8">
<path d="M478.546 183.981C478.931 187.715 478.967 199.268 477.594 205.977C476.233 202.954 474.534 199.183 472.848 195.377L478.546 183.981Z" fill="black"/>
<path opacity="0.8" d="M478.546 183.981C478.931 187.715 478.967 199.268 477.594 205.977C476.233 202.954 474.534 199.183 472.848 195.377L478.546 183.981Z" fill="black"/>
</g>
<path d="M508.228 278.712L296.48 222.384C293.73 221.633 291.387 219.829 289.957 217.362C288.528 214.895 288.128 211.965 288.843 209.206L298.889 171.429C299.649 168.686 301.456 166.351 303.922 164.929C306.387 163.507 309.313 163.111 312.068 163.828L523.815 220.144C526.568 220.895 528.913 222.701 530.343 225.17C531.773 227.64 532.171 230.573 531.453 233.334L521.406 271.039C520.662 273.795 518.861 276.147 516.394 277.584C513.927 279.021 510.992 279.426 508.228 278.712Z" fill="#294493"/>
<path opacity="0.8" d="M508.228 278.712L296.48 222.384C293.73 221.633 291.387 219.829 289.957 217.362C288.528 214.895 288.128 211.965 288.843 209.206L298.889 171.429C299.649 168.686 301.456 166.351 303.922 164.929C306.387 163.507 309.313 163.111 312.068 163.828L523.815 220.144C526.568 220.895 528.913 222.701 530.343 225.17C531.773 227.64 532.171 230.573 531.453 233.334L521.406 271.039C520.662 273.795 518.861 276.147 516.394 277.584C513.927 279.021 510.992 279.426 508.228 278.712Z" fill="#FAFAFA"/>
<path d="M510.022 281.88L298.287 225.492C295.535 224.743 293.189 222.94 291.757 220.473C290.325 218.006 289.923 215.075 290.638 212.314L300.696 174.549C301.445 171.797 303.248 169.45 305.715 168.019C308.182 166.587 311.114 166.185 313.875 166.9L525.61 223.227C528.362 223.976 530.709 225.779 532.14 228.246C533.572 230.713 533.974 233.645 533.259 236.406L523.213 274.183C522.475 276.946 520.674 279.306 518.203 280.748C515.732 282.19 512.792 282.597 510.022 281.88Z" fill="#294493"/>
<path opacity="0.4" d="M510.022 281.88L298.287 225.492C295.535 224.743 293.189 222.94 291.757 220.473C290.325 218.006 289.923 215.075 290.638 212.314L300.696 174.549C301.445 171.797 303.248 169.45 305.715 168.019C308.182 166.587 311.114 166.185 313.875 166.9L525.61 223.227C528.362 223.976 530.709 225.779 532.14 228.246C533.572 230.713 533.974 233.645 533.259 236.406L523.213 274.183C522.475 276.946 520.674 279.306 518.203 280.748C515.732 282.19 512.792 282.597 510.022 281.88Z" fill="#FAFAFA"/>
<path d="M511.829 284.94L300.094 228.612C297.342 227.863 294.996 226.06 293.564 223.593C292.132 221.126 291.73 218.195 292.445 215.433L302.491 177.657C303.242 174.904 305.049 172.559 307.518 171.129C309.987 169.699 312.92 169.301 315.682 170.019L527.417 226.335C530.185 227.083 532.544 228.898 533.978 231.381C535.412 233.865 535.803 236.815 535.066 239.586L525.008 277.351C524.246 280.092 522.438 282.424 519.972 283.843C517.507 285.263 514.582 285.657 511.829 284.94Z" fill="#294493"/>
<path opacity="0.2" d="M511.829 284.94L300.094 228.612C297.342 227.863 294.996 226.06 293.564 223.593C292.132 221.126 291.73 218.195 292.445 215.433L302.491 177.657C303.242 174.904 305.049 172.559 307.518 171.129C309.987 169.699 312.92 169.301 315.682 170.019L527.417 226.335C530.185 227.083 532.544 228.898 533.978 231.381C535.412 233.865 535.803 236.815 535.066 239.586L525.008 277.351C524.246 280.092 522.438 282.424 519.972 283.843C517.507 285.263 514.582 285.657 511.829 284.94Z" fill="black"/>
<path d="M499.901 229.669L365.272 193.846C364.044 193.52 362.783 194.25 362.457 195.478L361.28 199.902C360.953 201.13 361.684 202.39 362.911 202.717L497.541 238.539C498.769 238.866 500.029 238.135 500.356 236.907L501.533 232.484C501.86 231.256 501.129 229.995 499.901 229.669Z" fill="#294493"/>
<path opacity="0.7" d="M499.901 229.669L365.272 193.846C364.044 193.52 362.783 194.25 362.457 195.478L361.28 199.902C360.953 201.13 361.684 202.39 362.911 202.717L497.541 238.539C498.769 238.866 500.029 238.135 500.356 236.907L501.533 232.484C501.86 231.256 501.129 229.995 499.901 229.669Z" fill="#FAFAFA"/>
<path d="M446.338 231.423L361.3 208.796C360.072 208.47 358.811 209.2 358.485 210.428L357.308 214.852C356.981 216.08 357.711 217.34 358.939 217.667L443.978 240.294C445.206 240.621 446.466 239.89 446.793 238.662L447.97 234.238C448.297 233.011 447.566 231.75 446.338 231.423Z" fill="#294493"/>
<path opacity="0.7" d="M446.338 231.423L361.3 208.796C360.072 208.47 358.811 209.2 358.485 210.428L357.308 214.852C356.981 216.08 357.711 217.34 358.939 217.667L443.978 240.294C445.206 240.621 446.466 239.89 446.793 238.662L447.97 234.238C448.297 233.011 447.566 231.75 446.338 231.423Z" fill="#FAFAFA"/>
<path d="M480.389 256.494L356.306 223.479C355.637 223.301 354.951 223.699 354.773 224.367L354.528 225.287C354.35 225.955 354.748 226.642 355.417 226.82L479.5 259.835C480.168 260.013 480.854 259.616 481.032 258.947L481.277 258.027C481.455 257.359 481.057 256.672 480.389 256.494Z" fill="#FAFAFA"/>
<path d="M342.603 215.506C349.402 205.724 346.985 192.283 337.203 185.484C327.422 178.684 313.981 181.102 307.181 190.883C300.382 200.665 302.799 214.106 312.581 220.906C322.362 227.705 335.804 225.287 342.603 215.506Z" fill="#294493"/>
<path d="M342.954 208.64C342.047 212.047 340.151 215.109 337.504 217.438C334.857 219.767 331.579 221.259 328.084 221.726C324.589 222.192 321.034 221.611 317.869 220.058C314.704 218.504 312.071 216.047 310.302 212.996C308.534 209.946 307.709 206.44 307.933 202.921C308.158 199.402 309.42 196.029 311.561 193.228C313.702 190.426 316.626 188.323 319.962 187.183C323.299 186.043 326.898 185.918 330.306 186.824C332.577 187.413 334.708 188.446 336.576 189.865C338.444 191.284 340.012 193.059 341.189 195.089C342.365 197.118 343.127 199.361 343.43 201.687C343.733 204.013 343.572 206.376 342.954 208.64Z" fill="#FAFAFA"/>
<path d="M338.69 216.289C336.488 218.631 333.693 220.334 330.602 221.217C327.511 222.1 324.238 222.13 321.131 221.303C318.024 220.477 315.199 218.826 312.954 216.524C310.71 214.223 309.13 211.357 308.382 208.23C313.663 206.435 319.358 206.242 324.749 207.676C330.14 209.11 334.986 212.107 338.678 216.289H338.69Z" fill="#294493"/>
<path opacity="0.7" d="M338.69 216.289C336.488 218.631 333.693 220.334 330.602 221.217C327.511 222.1 324.238 222.13 321.131 221.303C318.024 220.477 315.199 218.826 312.954 216.524C310.71 214.223 309.13 211.357 308.382 208.23C313.663 206.435 319.358 206.242 324.749 207.676C330.14 209.11 334.986 212.107 338.678 216.289H338.69Z" fill="#FAFAFA"/>
<path d="M334.968 200.207C334.563 201.724 333.718 203.086 332.539 204.122C331.36 205.158 329.901 205.822 328.345 206.029C326.79 206.236 325.207 205.977 323.799 205.286C322.39 204.594 321.218 203.5 320.431 202.142C319.643 200.785 319.276 199.224 319.375 197.658C319.475 196.092 320.036 194.59 320.988 193.343C321.94 192.095 323.241 191.158 324.726 190.65C326.211 190.141 327.813 190.084 329.33 190.486C330.339 190.753 331.285 191.217 332.115 191.85C332.945 192.484 333.641 193.274 334.165 194.177C334.689 195.08 335.029 196.078 335.167 197.112C335.305 198.147 335.237 199.199 334.968 200.207Z" fill="#294493"/>
<path opacity="0.7" d="M334.968 200.207C334.563 201.724 333.718 203.086 332.539 204.122C331.36 205.158 329.901 205.822 328.345 206.029C326.79 206.236 325.207 205.977 323.799 205.286C322.39 204.594 321.218 203.5 320.431 202.142C319.643 200.785 319.276 199.224 319.375 197.658C319.475 196.092 320.036 194.59 320.988 193.343C321.94 192.095 323.241 191.158 324.726 190.65C326.211 190.141 327.813 190.084 329.33 190.486C330.339 190.753 331.285 191.217 332.115 191.85C332.945 192.484 333.641 193.274 334.165 194.177C334.689 195.08 335.029 196.078 335.167 197.112C335.305 198.147 335.237 199.199 334.968 200.207Z" fill="#FAFAFA"/>
<path d="M468.523 148.312C466.271 154.456 463.163 165.876 466.921 170.814C466.921 170.814 464.163 176.97 452.382 175.079C439.42 172.995 447.214 167.658 447.214 167.658C454.562 167.104 455.212 161.828 454.779 156.696L468.523 148.312Z" fill="#E4897B"/>
<path d="M444.503 169.706C445.166 168.586 444.576 164.213 444.576 164.213C444.576 164.213 463.32 162.828 469.873 165.599C473.378 167.08 469.873 173.32 469.873 173.32L444.503 169.706Z" fill="#294493"/>
<path opacity="0.1" d="M444.503 169.706C445.166 168.586 444.576 164.213 444.576 164.213C444.576 164.213 463.32 162.828 469.873 165.599C473.378 167.08 469.873 173.32 469.873 173.32L444.503 169.706Z" fill="black"/>
<path d="M446.913 137.519C446.792 138.218 446.334 138.724 445.877 138.651C445.419 138.579 445.142 137.953 445.25 137.254C445.359 136.555 445.829 136.049 446.286 136.122C446.744 136.194 446.985 136.82 446.913 137.519Z" fill="#263238"/>
<path d="M446.828 137.868C445.654 139.87 444.206 141.699 442.528 143.301C442.946 143.727 443.454 144.056 444.014 144.265C444.574 144.473 445.173 144.555 445.768 144.506L446.828 137.868Z" fill="#DE5753"/>
<path d="M449.732 135.351C449.655 135.354 449.579 135.336 449.513 135.297C449.447 135.259 449.393 135.202 449.358 135.134C449.128 134.665 448.789 134.257 448.37 133.945C447.951 133.633 447.464 133.425 446.949 133.339C446.85 133.316 446.763 133.258 446.704 133.176C446.645 133.094 446.617 132.993 446.626 132.892C446.635 132.791 446.679 132.697 446.752 132.626C446.825 132.556 446.92 132.514 447.021 132.508C447.674 132.608 448.293 132.862 448.827 133.25C449.361 133.637 449.795 134.147 450.093 134.736C450.145 134.834 450.156 134.948 450.124 135.054C450.093 135.16 450.021 135.249 449.924 135.303C449.865 135.335 449.799 135.352 449.732 135.351Z" fill="#263238"/>
<path d="M392.211 414.665L383.514 413.496L383.923 393.042L392.621 394.21L392.211 414.665Z" fill="#E4897B"/>
<path d="M457.14 424.278H448.358L441.528 403.944H450.297L457.14 424.278Z" fill="#E4897B"/>
<path d="M447.19 423.254H457.899C458.072 423.257 458.24 423.318 458.375 423.427C458.51 423.536 458.605 423.687 458.645 423.856L460.38 431.662C460.42 431.852 460.417 432.049 460.37 432.237C460.323 432.425 460.235 432.601 460.111 432.75C459.987 432.9 459.831 433.019 459.654 433.1C459.478 433.181 459.285 433.22 459.091 433.216C455.646 433.156 453.14 432.963 448.804 432.963C446.129 432.963 440.636 433.24 436.95 433.24C433.264 433.24 432.782 429.626 434.288 429.265C441.058 427.783 443.6 425.747 445.768 423.796C446.159 423.447 446.665 423.254 447.19 423.254Z" fill="#263238"/>
<path d="M383.213 411.509L392.717 412.786C392.889 412.81 393.047 412.893 393.166 413.02C393.284 413.147 393.355 413.311 393.367 413.485L394.042 421.447C394.059 421.639 394.032 421.832 393.963 422.012C393.894 422.192 393.786 422.354 393.646 422.486C393.505 422.618 393.337 422.717 393.153 422.775C392.97 422.833 392.775 422.848 392.584 422.82C389.163 422.29 384.249 421.423 379.936 420.845C374.901 420.158 371.504 419.785 365.637 418.99C362.023 418.508 361.566 414.761 363.107 414.629C370.106 414.063 374.66 414.725 381.02 411.894C381.701 411.566 382.46 411.433 383.213 411.509Z" fill="#263238"/>
<path d="M383.923 393.042L383.706 403.594L392.416 404.763L392.62 394.223L383.923 393.042Z" fill="#CE6F64"/>
<path d="M450.309 403.956H441.528L445.057 414.436H453.839L450.309 403.956Z" fill="#CE6F64"/>
<path d="M433.662 168.538C433.662 168.538 419.845 193.413 423.001 243.646L469.511 249.922C470.8 242.827 471.017 207.387 482.449 174.669C477.44 172.979 472.325 171.618 467.138 170.598C460.607 169.322 454.006 168.429 447.37 167.923C442.792 167.77 438.208 167.975 433.662 168.538Z" fill="#263238"/>
<path d="M439.01 181.21C437.083 184.547 435.035 187.776 432.987 191.052L426.759 200.689C424.687 203.917 422.519 207.098 420.339 210.326C419.255 211.916 418.134 213.494 417.014 215.072L415.315 217.481C414.689 218.337 413.954 219.312 413.256 220.12C410.512 223.255 407.488 226.134 404.221 228.721C401.077 231.226 397.885 233.539 394.584 235.707C388.068 240.02 381.271 243.892 374.238 247.296L371.022 241.574C377.045 237.153 383.068 232.491 388.802 227.757C391.657 225.348 394.451 222.938 397.066 220.421C399.614 218.042 401.959 215.456 404.076 212.687C404.582 212.025 404.968 211.482 405.426 210.724L406.907 208.314L409.859 203.496L415.761 193.775L421.664 184.017C423.675 180.789 425.639 177.512 427.687 174.32L439.01 181.21Z" fill="#E4897B"/>
<path d="M443.299 179.223C442.178 187.535 427.639 207.314 427.639 207.314L407.389 190.221C407.389 190.221 417.978 178.38 426.663 171.622C435.348 164.864 444.503 170.092 443.299 179.223Z" fill="#263238"/>
<path d="M375.382 239.068L367.805 241.646L375.395 249.56C375.395 249.56 380.02 249.006 379.599 242.622L375.382 239.068Z" fill="#E4897B"/>
<path d="M362.782 247.669L371.443 251.921L375.395 249.56L367.805 241.646L362.782 247.669Z" fill="#E4897B"/>
<path d="M470.812 138.892C468.909 147.397 468.222 152.468 463.187 156.179C455.598 161.756 445.636 156.179 444.961 147.228C444.347 139.218 447.563 126.665 456.525 124.593C458.497 124.128 460.554 124.174 462.503 124.728C464.451 125.282 466.225 126.325 467.657 127.758C469.089 129.191 470.13 130.966 470.682 132.915C471.235 134.864 471.279 136.921 470.812 138.892Z" fill="#E4897B"/>
<path d="M482.581 138.603C482.469 137.949 482.218 137.326 481.846 136.775C481.475 136.225 480.99 135.76 480.425 135.411C484.545 133.604 482.485 131.508 478.967 128.448C474.426 124.389 472.535 116.173 472.74 114.414C471.306 116.595 471.692 119.811 472.908 122.702C471.392 121.033 470.17 119.118 469.294 117.041C465.777 108.211 458.176 115.932 450.84 116.185C438.516 116.607 448.274 110.162 457.321 110.355C443.841 106.223 430.397 111.343 432.59 120.353C434.782 129.364 449.864 117.944 449.78 126.256C449.78 127.942 451.623 129.605 454.357 130.918C450.563 138.724 459.814 154.408 465.199 154.914C470.583 155.42 480.015 146.048 480.413 137.929C481.172 138.014 481.908 138.243 482.581 138.603Z" fill="#263238"/>
<path d="M458.573 140.832C458.037 142.954 456.687 144.78 454.815 145.915C452.309 147.385 450.322 145.337 450.382 142.578C450.442 140.109 451.827 136.351 454.634 136.001C455.25 135.936 455.871 136.025 456.444 136.261C457.016 136.496 457.52 136.871 457.911 137.35C458.302 137.83 458.567 138.399 458.683 139.007C458.799 139.615 458.761 140.242 458.573 140.832Z" fill="#E4897B"/>
<path d="M457.007 412.4H440.89C440.89 412.4 419.664 358.277 417.412 330.197C416.93 324.174 417.893 316.236 419.676 307.695C422.712 293.095 428.109 276.628 432.445 264.329C436.336 253.487 439.456 245.838 439.456 245.838L469.487 249.898C466.536 271.689 442.709 306.346 442.431 336.148C442.203 363.638 457.007 412.4 457.007 412.4Z" fill="#294493"/>
<path opacity="0.1" d="M457.007 412.4H440.89C440.89 412.4 419.664 358.277 417.412 330.197C416.93 324.174 417.893 316.236 419.676 307.695C422.712 293.095 428.109 276.628 432.445 264.329C436.336 253.487 439.456 245.838 439.456 245.838L469.487 249.898C466.536 271.689 442.709 306.346 442.431 336.148C442.203 363.638 457.007 412.4 457.007 412.4Z" fill="black"/>
<path d="M440.082 271.171C439.034 285.735 427.832 301.226 419.712 307.695C422.748 293.095 428.145 276.628 432.481 264.329C434.758 264.052 438.36 268.545 440.082 271.171Z" fill="#294493"/>
<path opacity="0.2" d="M440.082 271.171C439.034 285.735 427.832 301.226 419.712 307.695C422.748 293.095 428.145 276.628 432.481 264.329C434.758 264.052 438.36 268.545 440.082 271.171Z" fill="black"/>
<path d="M423.001 243.646C423.001 243.646 381.707 298.636 379.069 325.246C376.322 352.953 380.719 401.137 380.719 401.137L395.452 403.125C395.452 403.125 399.897 357.879 404.221 330.848C408.919 301.407 453.61 270.966 456.73 248.175L423.001 243.646Z" fill="#294493"/>
<path opacity="0.1" d="M423.001 243.646C423.001 243.646 381.707 298.636 379.069 325.246C376.322 352.953 380.719 401.137 380.719 401.137L395.452 403.125C395.452 403.125 399.897 357.879 404.221 330.848C408.919 301.407 453.61 270.966 456.73 248.175L423.001 243.646Z" fill="black"/>
<path d="M438.083 412.75H459.103V407.088L435.613 406.727L438.083 412.75Z" fill="#294493"/>
<path opacity="0.4" d="M438.083 412.75H459.103V407.088L435.613 406.727L438.083 412.75Z" fill="#FAFAFA"/>
<path d="M377.744 401.041L398.21 403.847L398.969 398.186L376.093 394.74L377.744 401.041Z" fill="#294493"/>
<path opacity="0.4" d="M377.744 401.041L398.21 403.847L398.969 398.186L376.093 394.74L377.744 401.041Z" fill="#FAFAFA"/>
<path d="M444.287 424.796C443.689 424.839 443.094 424.678 442.6 424.338C442.44 424.208 442.316 424.039 442.24 423.847C442.164 423.655 442.139 423.446 442.166 423.242C442.166 423.12 442.2 423 442.264 422.896C442.328 422.792 442.419 422.707 442.528 422.652C443.491 422.17 446.334 423.856 446.648 424.097C446.681 424.119 446.708 424.15 446.725 424.186C446.742 424.222 446.748 424.262 446.744 424.302C446.739 424.343 446.722 424.382 446.694 424.412C446.665 424.443 446.628 424.463 446.587 424.471C445.836 424.67 445.064 424.779 444.287 424.796ZM442.986 422.977C442.898 422.956 442.808 422.956 442.721 422.977C442.721 422.977 442.6 423.061 442.588 423.218C442.568 423.357 442.583 423.5 442.631 423.632C442.68 423.764 442.76 423.883 442.865 423.977C443.848 424.422 444.963 424.478 445.985 424.133C445.069 423.559 444.05 423.166 442.986 422.977Z" fill="#294493"/>
<path d="M446.539 424.483H446.443C445.527 423.989 443.781 422.073 443.961 421.086C443.992 420.933 444.075 420.795 444.196 420.696C444.316 420.597 444.468 420.543 444.624 420.544C444.781 420.521 444.941 420.533 445.093 420.578C445.245 420.624 445.385 420.703 445.503 420.809C446.527 421.64 446.708 424.169 446.708 424.278C446.715 424.316 446.709 424.355 446.691 424.39C446.674 424.425 446.646 424.453 446.611 424.471L446.539 424.483ZM444.768 420.869H444.672C444.407 420.869 444.383 421.025 444.371 421.074C444.262 421.652 445.383 423.109 446.286 423.796C446.22 422.798 445.859 421.843 445.25 421.05C445.11 420.949 444.94 420.902 444.768 420.917V420.869Z" fill="#294493"/>
<path d="M380.996 412.641C379.623 412.641 377.984 412.46 377.382 411.726C377.26 411.581 377.173 411.41 377.129 411.226C377.085 411.042 377.085 410.85 377.129 410.665C377.154 410.554 377.206 410.45 377.279 410.362C377.352 410.274 377.445 410.204 377.551 410.16C378.683 409.726 381.936 411.966 382.309 412.219C382.344 412.245 382.371 412.28 382.386 412.321C382.401 412.362 382.404 412.406 382.393 412.448C382.381 412.49 382.355 412.526 382.32 412.552C382.286 412.578 382.244 412.592 382.201 412.593C381.863 412.617 381.43 412.641 380.996 412.641ZM377.888 410.521C377.813 410.503 377.734 410.503 377.659 410.521C377.617 410.535 377.58 410.56 377.552 410.594C377.525 410.628 377.507 410.67 377.503 410.714C377.471 410.834 377.469 410.96 377.496 411.082C377.524 411.203 377.579 411.317 377.659 411.412C378.129 411.954 379.562 412.244 381.514 412.171C380.428 411.384 379.195 410.823 377.888 410.521Z" fill="#294493"/>
<path d="M382.152 412.605H382.044C381.056 411.991 379.237 409.834 379.526 408.871C379.587 408.654 379.779 408.389 380.309 408.389H380.37C380.577 408.399 380.781 408.45 380.969 408.538C381.158 408.627 381.326 408.753 381.466 408.907C382.127 409.96 382.439 411.195 382.357 412.436C382.359 412.474 382.349 412.511 382.33 412.543C382.311 412.575 382.282 412.601 382.249 412.617L382.152 412.605ZM380.309 408.774C379.972 408.774 379.936 408.907 379.924 408.955C379.743 409.533 380.96 411.196 381.948 411.991C381.98 410.984 381.703 409.992 381.153 409.148C381.053 409.034 380.932 408.941 380.795 408.877C380.658 408.813 380.509 408.778 380.358 408.774H380.309Z" fill="#294493"/>
</svg>
