<svg width="436" height="432" viewBox="0 0 436 432" fill="none" xmlns="http://www.w3.org/2000/svg">
<path d="M379.887 109.596L377.881 106.295C360.952 78.3952 330.346 61.5902 298.089 63.6633C293.935 63.9221 289.807 64.4899 285.737 65.362C256.398 71.6386 230.879 93.8181 220.293 122.236C214.074 138.945 212.337 158.178 200.532 171.441C185.176 188.717 159.071 189.245 136.134 188.525C113.196 187.805 87.0912 188.419 71.8314 205.752C62.2341 216.607 59.2109 232.039 59.9883 246.57C62.0325 285.045 88.8475 319.452 122.947 336.554C157.046 353.657 197.192 355.183 234.506 347.668C286.783 337.111 336.497 308.185 366.384 263.48C396.27 218.776 403.794 157.842 379.887 109.596Z" fill="#EBEBEB"/>
<path d="M421.472 431.568C421.472 431.712 327.418 431.818 211.511 431.818C95.604 431.818 1.53076 431.712 1.53076 431.568C1.53076 431.424 95.5272 431.319 211.511 431.319C327.495 431.319 421.472 431.434 421.472 431.568Z" fill="#263238"/>
<path d="M69.9789 389.013C70.9556 389.483 71.8283 390.144 72.5454 390.957C73.2624 391.769 73.8093 392.717 74.1537 393.745C74.8246 395.809 75.0118 397.999 74.7008 400.146C74.2305 404.302 71.8696 408.496 69.3359 411.817C65.8328 408.755 65.0267 403.429 64.7867 400.703C64.4124 396.394 66.3511 388.37 69.9789 389.013Z" fill="#294493"/>
<path d="M73.3956 418.621C73.1587 417.435 73.2389 416.206 73.6281 415.061C74.0174 413.915 74.7019 412.892 75.6126 412.095C76.5358 411.315 77.6058 410.727 78.7595 410.366C79.9132 410.005 81.1274 409.878 82.3308 409.993C82.8902 409.985 83.4447 410.1 83.9553 410.329C84.4659 410.557 84.9203 410.895 85.2867 411.318C85.5507 411.769 85.6899 412.283 85.6899 412.805C85.6899 413.328 85.5507 413.842 85.2867 414.293C84.7537 415.197 83.9925 415.945 83.0794 416.462C80.0466 418.381 76.7643 419.648 73.3381 418.621" fill="#294493"/>
<path d="M68.9136 431.357C68.9326 431.069 68.9743 430.784 69.0383 430.503C69.1439 429.908 69.2879 429.13 69.4606 428.199C69.8496 425.63 70.6534 423.14 71.8408 420.829C73.0745 418.519 74.8994 416.578 77.1289 415.205C77.8077 414.799 78.5327 414.477 79.2883 414.245C79.4897 414.181 79.6948 414.13 79.9025 414.091C79.9786 414.076 80.0569 414.076 80.1329 414.091C79.1302 414.437 78.1655 414.884 77.2537 415.425C75.0961 416.817 73.3289 418.736 72.1191 421.001C70.9444 423.29 70.1225 425.742 69.6814 428.276C69.4702 429.236 69.2975 430.023 69.1631 430.56C69.1049 430.833 69.0214 431.1 68.9136 431.357Z" fill="#263238"/>
<path d="M69.0382 395.204C69.0574 395.328 69.0574 395.454 69.0382 395.578C69.0382 395.856 69.0382 396.212 69.1053 396.653C69.1053 397.613 69.2013 398.928 69.2589 400.588C69.3645 403.918 69.4508 408.525 69.4317 413.602C69.4125 418.679 69.2877 423.286 69.1437 426.616C69.0765 428.276 69.0094 429.63 68.9518 430.551C68.9518 430.992 68.9518 431.347 68.8846 431.626C68.8979 431.75 68.8979 431.876 68.8846 432C68.8705 431.876 68.8705 431.75 68.8846 431.626C68.8846 431.347 68.8846 430.992 68.8846 430.551C68.8846 429.591 68.9422 428.248 68.9806 426.606C69.0574 423.276 69.1533 418.679 69.1725 413.602C69.1917 408.525 69.1725 403.928 69.0957 400.598C69.0957 398.956 69.0478 397.622 69.0286 396.653V395.578C69.0216 395.453 69.0248 395.328 69.0382 395.204Z" fill="#263238"/>
<path d="M67.3493 421.155C66.9273 418.635 65.9105 416.253 64.3832 414.205C62.856 412.157 60.8623 410.502 58.5677 409.379C57.4064 408.822 55.8805 408.419 54.9111 409.321C53.9418 410.224 54.1721 411.759 54.6424 412.968C55.6695 415.476 57.4162 417.624 59.6622 419.141C61.9081 420.657 64.5529 421.475 67.2629 421.491" fill="#294493"/>
<path d="M59.1339 413.323C59.3933 413.404 59.644 413.51 59.8825 413.64C60.1128 413.755 60.4007 413.899 60.7174 414.091C61.0849 414.295 61.4406 414.519 61.7827 414.763C62.2108 415.059 62.621 415.379 63.0112 415.723C63.463 416.074 63.8955 416.448 64.3068 416.846C65.2494 417.808 66.08 418.874 66.783 420.022C67.4657 421.18 68.0101 422.414 68.4049 423.698C68.5777 424.259 68.7155 424.829 68.8176 425.407C68.9163 425.908 68.9868 426.414 69.0287 426.923C69.0698 427.341 69.089 427.76 69.0863 428.18C69.1079 428.5 69.1079 428.82 69.0863 429.14C69.0809 429.411 69.052 429.68 68.9999 429.946C68.9328 429.946 69.0479 428.794 68.8464 426.952C68.7897 426.452 68.7064 425.955 68.5969 425.464C68.4866 424.9 68.3456 424.343 68.1746 423.794C67.7623 422.538 67.2187 421.328 66.5526 420.186C65.864 419.054 65.053 418.001 64.1341 417.047C63.7295 416.634 63.3 416.246 62.8481 415.886C62.4712 415.546 62.0772 415.226 61.6676 414.926C60.1608 413.861 59.1051 413.381 59.1339 413.323Z" fill="#263238"/>
<path d="M268.567 396.077L269.249 430.503L226.416 431.568C226.569 427.47 248.49 418.708 248.49 418.708L247.146 396.634L268.567 396.077Z" fill="#294493"/>
<g opacity="0.6">
<path d="M261.715 416.52C262.121 416.634 262.472 416.891 262.703 417.244C262.934 417.597 263.03 418.021 262.972 418.439C262.875 418.856 262.622 419.22 262.265 419.456C261.908 419.691 261.474 419.781 261.053 419.706C260.612 419.584 260.231 419.302 259.987 418.915C259.742 418.529 259.65 418.065 259.728 417.614C259.877 417.188 260.185 416.836 260.588 416.632C260.99 416.428 261.456 416.388 261.888 416.52" fill="white"/>
</g>
<g opacity="0.6">
<path d="M269.249 430.503L269.047 427.038L228.057 429.323C228.057 429.323 226.137 430.205 226.416 431.539L269.249 430.503Z" fill="white"/>
</g>
<path d="M247.818 418.506C247.818 418.717 248.883 418.784 249.929 419.466C250.976 420.147 251.542 420.982 251.734 420.896C251.926 420.809 251.58 419.61 250.304 418.842C249.027 418.074 247.77 418.314 247.818 418.506Z" fill="#263238"/>
<path d="M243.374 420.473C243.374 420.675 244.248 421.011 244.977 421.875C245.706 422.738 245.937 423.679 246.148 423.66C246.359 423.64 246.465 422.46 245.524 421.404C244.584 420.349 243.374 420.272 243.374 420.473Z" fill="#263238"/>
<path d="M240.956 425.916C241.148 425.916 241.417 424.908 240.85 423.775C240.284 422.643 239.296 422.211 239.209 422.384C239.123 422.556 239.747 423.161 240.169 424.092C240.591 425.023 240.754 425.896 240.956 425.916Z" fill="#263238"/>
<path d="M248.077 413.448C248.163 413.64 249.114 413.323 250.304 413.371C251.494 413.419 252.415 413.775 252.521 413.592C252.626 413.41 251.724 412.69 250.323 412.632C248.922 412.575 247.972 413.285 248.077 413.448Z" fill="#263238"/>
<path d="M248.931 408.342C249.638 408.513 250.377 408.49 251.072 408.275C252.303 408.029 253.473 407.543 254.517 406.845C254.756 406.71 254.97 406.534 255.15 406.327C255.285 406.176 255.365 405.984 255.377 405.782C255.389 405.58 255.333 405.38 255.218 405.214C255.107 405.065 254.961 404.946 254.794 404.866C254.627 404.786 254.443 404.747 254.258 404.753C253.987 404.758 253.719 404.803 253.461 404.887C253.005 405.008 252.562 405.172 252.137 405.377C251.431 405.727 250.784 406.183 250.217 406.73C249.258 407.69 248.931 408.458 248.999 408.496C249.066 408.534 249.565 407.901 250.563 407.114C251.149 406.654 251.795 406.276 252.482 405.991C252.877 405.821 253.284 405.683 253.701 405.578C254.152 405.444 254.546 405.434 254.661 405.636C254.776 405.838 254.661 405.742 254.661 405.876C254.522 406.024 254.364 406.153 254.191 406.26C253.831 406.503 253.46 406.727 253.077 406.932C252.422 407.28 251.734 407.562 251.024 407.776C250.313 407.911 249.613 408.1 248.931 408.342Z" fill="#263238"/>
<path d="M249.248 408.631C249.641 408.011 249.819 407.279 249.757 406.548C249.788 405.272 249.455 404.014 248.797 402.92C248.676 402.64 248.484 402.396 248.24 402.213C247.996 402.029 247.708 401.912 247.405 401.874C247.215 401.883 247.031 401.945 246.875 402.054C246.719 402.162 246.597 402.313 246.522 402.488C246.421 402.744 246.353 403.012 246.321 403.285C246.249 403.762 246.249 404.247 246.321 404.724C246.454 405.525 246.783 406.281 247.281 406.922C248.144 408.007 249.027 408.237 249.037 408.17C249.047 408.103 248.365 407.671 247.703 406.625C247.321 406.018 247.073 405.338 246.974 404.628C246.916 404.215 246.916 403.795 246.974 403.381C247.031 402.93 247.194 402.555 247.357 402.603C247.521 402.651 247.943 402.92 248.125 403.285C248.35 403.65 248.54 404.035 248.691 404.437C248.948 405.118 249.106 405.832 249.162 406.558C249.334 407.815 249.133 408.602 249.248 408.631Z" fill="#263238"/>
<path d="M303.483 395.396L304.164 429.821L261.341 430.896C261.485 426.798 283.414 418.026 283.414 418.026L282.071 395.952L303.483 395.396Z" fill="#294493"/>
<g opacity="0.6">
<path d="M296.63 415.886C297.031 416.007 297.376 416.267 297.605 416.618C297.833 416.969 297.93 417.39 297.878 417.806C297.779 418.221 297.525 418.584 297.169 418.819C296.812 419.054 296.379 419.145 295.958 419.072C295.518 418.952 295.138 418.673 294.893 418.287C294.648 417.902 294.556 417.439 294.634 416.99C294.779 416.561 295.086 416.206 295.49 416.001C295.894 415.797 296.362 415.759 296.793 415.896" fill="white"/>
</g>
<g opacity="0.6">
<path d="M304.164 429.821L303.962 426.357L262.972 428.679C262.972 428.679 261.053 429.553 261.34 430.896L304.164 429.821Z" fill="white"/>
</g>
<path d="M282.733 417.806C282.733 418.017 283.799 418.084 284.845 418.765C285.891 419.447 286.457 420.272 286.649 420.186C286.841 420.099 286.495 418.9 285.219 418.142C283.943 417.383 282.685 417.633 282.733 417.806Z" fill="#263238"/>
<path d="M278.29 419.802C278.29 420.003 279.163 420.339 279.892 421.203C280.622 422.067 280.852 422.998 281.063 422.988C281.274 422.979 281.38 421.789 280.449 420.723C279.518 419.658 278.29 419.6 278.29 419.802Z" fill="#263238"/>
<path d="M275.871 425.234C276.063 425.282 276.332 424.226 275.765 423.094C275.199 421.961 274.211 421.53 274.124 421.702C274.038 421.875 274.662 422.48 275.084 423.42C275.506 424.361 275.669 425.224 275.871 425.234Z" fill="#263238"/>
<path d="M282.992 412.767C283.079 412.959 284.029 412.652 285.219 412.7C286.409 412.748 287.33 413.103 287.436 412.921C287.541 412.738 286.639 411.961 285.238 411.961C283.837 411.961 282.877 412.614 282.992 412.767Z" fill="#263238"/>
<path d="M283.885 407.661C284.59 407.839 285.33 407.819 286.025 407.604C286.795 407.444 287.542 407.193 288.252 406.855C288.672 406.654 289.079 406.426 289.47 406.174C289.707 406.031 289.921 405.853 290.104 405.646C290.238 405.495 290.318 405.303 290.33 405.101C290.342 404.899 290.286 404.699 290.171 404.533C290.058 404.387 289.913 404.27 289.746 404.191C289.579 404.113 289.396 404.075 289.211 404.082C288.941 404.088 288.674 404.13 288.415 404.206C287.958 404.33 287.515 404.497 287.09 404.705C286.385 405.052 285.738 405.506 285.171 406.049C284.211 407.009 283.885 407.786 283.952 407.824C284.019 407.863 284.518 407.22 285.516 406.433C286.104 405.977 286.75 405.599 287.436 405.31C287.832 405.144 288.239 405.006 288.655 404.897C289.106 404.772 289.499 404.753 289.614 404.955C289.73 405.156 289.614 405.06 289.614 405.195C289.475 405.343 289.317 405.472 289.144 405.579C288.787 405.825 288.415 406.049 288.031 406.25C287.374 406.597 286.686 406.883 285.977 407.105C285.267 407.24 284.568 407.426 283.885 407.661Z" fill="#263238"/>
<path d="M284.163 407.959C284.554 407.338 284.732 406.607 284.672 405.876C284.698 404.598 284.366 403.338 283.712 402.239C283.589 401.96 283.397 401.717 283.153 401.533C282.91 401.35 282.623 401.233 282.32 401.193C282.128 401.196 281.94 401.257 281.783 401.368C281.625 401.48 281.505 401.636 281.437 401.816C281.335 402.068 281.267 402.333 281.236 402.603C281.168 403.084 281.168 403.572 281.236 404.053C281.371 404.85 281.7 405.602 282.196 406.241C283.059 407.335 283.942 407.556 283.962 407.488C283.981 407.421 283.29 406.999 282.618 405.943C282.235 405.338 281.986 404.657 281.889 403.947C281.831 403.536 281.831 403.12 281.889 402.709C281.946 402.248 282.109 401.874 282.282 401.922C282.455 401.97 282.858 402.248 283.05 402.603C283.266 402.972 283.452 403.357 283.607 403.755C283.862 404.44 284.02 405.157 284.077 405.886C284.25 407.143 284.048 407.93 284.163 407.959Z" fill="#263238"/>
<path d="M226.857 226.886C226.445 226.886 228.777 270.074 230.581 280.717C233.355 297.455 242.587 411.971 242.587 411.971H270.65L271.226 252.655L276.322 313.982L278.242 412.297L305.671 411.568L308.55 307.273C307.686 299.49 310.018 227.903 310.018 227.903L226.857 226.886Z" fill="#263238"/>
<path d="M239.554 65.7172C236.243 64.1816 234.17 60.7937 232.951 57.3579C231.733 53.922 231.176 50.227 229.823 46.8776C228.863 44.3535 229.919 40.3322 227.654 38.8254C224.822 36.9539 224.851 31.9633 225.945 29.4776C227.135 26.7711 230.37 24.7557 230.591 23.9015C231.166 21.6461 229.208 19.2084 229.938 17.001C231.646 11.8088 235.879 12.4903 235.879 12.4903C237.798 10.1581 240.409 7.06776 244.641 5.97366C249.219 4.79318 255.985 3.91023 260.064 6.30957C264.143 8.7089 267.147 10.3213 268.462 14.8704" fill="#263238"/>
<path d="M277.291 76.9079L267.694 93.3961L254.43 106.64L246.647 95.949V85.1712V76.1401C246.647 76.1401 234.66 74.4893 234.305 62.531C234.132 56.7726 234.746 44.8335 235.437 34.0557C235.791 28.4645 238.237 23.2114 242.288 19.3417C246.339 15.4719 251.699 13.2692 257.3 13.1719H258.452C270.928 13.6901 277.435 24.5543 276.572 36.9925L277.359 76.9271" fill="#CE947A"/>
<path d="M238.873 42.9045C238.88 43.3495 239.059 43.7745 239.372 44.0909C239.685 44.4074 240.108 44.5909 240.553 44.6032C240.77 44.6161 240.989 44.5855 241.195 44.513C241.401 44.4405 241.59 44.3277 241.752 44.1811C241.914 44.0346 242.044 43.8572 242.137 43.6594C242.229 43.4616 242.281 43.2474 242.29 43.0292C242.282 42.5843 242.104 42.1593 241.791 41.8428C241.478 41.5263 241.055 41.3428 240.61 41.3305C240.392 41.3176 240.174 41.3483 239.968 41.4207C239.762 41.4932 239.573 41.606 239.411 41.7526C239.249 41.8992 239.118 42.0766 239.026 42.2743C238.934 42.4721 238.882 42.6864 238.873 42.9045Z" fill="#263238"/>
<path d="M237.846 39.2289C238.067 39.4496 239.344 38.4707 241.177 38.4419C243.01 38.4131 244.382 39.3153 244.574 39.0849C244.766 38.8546 244.449 38.5859 243.854 38.1252C243.051 37.5828 242.098 37.3044 241.129 37.3286C240.169 37.3589 239.244 37.6951 238.489 38.2883C237.933 38.7106 237.741 39.1329 237.846 39.2289Z" fill="#263238"/>
<path d="M256.139 42.4919C256.141 42.9367 256.317 43.3631 256.629 43.6803C256.941 43.9976 257.364 44.1806 257.809 44.1906C258.027 44.2035 258.245 44.1729 258.451 44.1004C258.657 44.0279 258.846 43.9151 259.008 43.7685C259.17 43.622 259.301 43.4446 259.393 43.2468C259.485 43.049 259.537 42.8348 259.546 42.6166C259.541 42.1709 259.363 41.7446 259.05 41.4276C258.736 41.1106 258.312 40.9279 257.866 40.9179C257.649 40.905 257.431 40.9357 257.226 41.0083C257.02 41.0809 256.832 41.1939 256.671 41.3405C256.51 41.4872 256.38 41.6647 256.288 41.8624C256.197 42.0602 256.146 42.2742 256.139 42.4919Z" fill="#263238"/>
<path d="M256.158 38.4031C256.35 38.6431 257.722 37.8081 259.555 37.9809C261.389 38.1536 262.636 39.1901 262.857 38.9406C263.078 38.6911 262.79 38.4223 262.243 37.9809C261.504 37.3545 260.588 36.9753 259.623 36.8964C258.669 36.8054 257.711 37.0205 256.887 37.5106C256.292 37.9041 256.062 38.288 256.158 38.4031Z" fill="#263238"/>
<path d="M249.67 53.6342C248.696 53.3479 247.69 53.1835 246.676 53.1447C246.205 53.1447 245.764 53.0199 245.716 52.7032C245.672 52.218 245.772 51.7306 246.004 51.302C246.426 50.1599 246.868 48.9603 247.338 47.7126C249.171 42.5876 250.496 38.384 250.294 38.3072C250.092 38.2304 248.422 42.3285 246.58 47.4535L245.313 51.0621C245.028 51.6357 244.951 52.2899 245.092 52.9144C245.164 53.0784 245.273 53.224 245.409 53.3403C245.545 53.4566 245.706 53.5407 245.879 53.5862C246.14 53.652 246.407 53.6843 246.676 53.6822C247.672 53.7921 248.678 53.776 249.67 53.6342Z" fill="#263238"/>
<path d="M255.102 54.8145C254.805 54.8145 254.834 56.8012 253.183 58.2408C251.532 59.6804 249.344 59.5076 249.344 59.7859C249.344 59.9107 249.824 60.1602 250.716 60.1698C251.887 60.1694 253.019 59.7546 253.912 58.9989C254.769 58.2707 255.309 57.2385 255.419 56.1197C255.477 55.2944 255.237 54.7953 255.102 54.8145Z" fill="#263238"/>
<path d="M256.273 32.3475C256.427 32.8561 258.269 32.741 260.41 33.144C262.55 33.5471 264.248 34.2573 264.556 33.8254C264.7 33.6239 264.431 33.1344 263.759 32.597C262.867 31.9354 261.831 31.4947 260.736 31.3109C259.645 31.1006 258.519 31.1566 257.454 31.4741C256.609 31.7428 256.216 32.1075 256.273 32.3475Z" fill="#263238"/>
<path d="M238.624 34.5259C238.95 34.9386 240.217 34.5259 241.733 34.4396C243.25 34.3532 244.555 34.6699 244.843 34.2284C244.968 34.0173 244.756 33.595 244.19 33.2111C243.426 32.7495 242.541 32.5259 241.649 32.5686C240.757 32.6114 239.897 32.9185 239.18 33.451C238.643 33.9117 238.48 34.3244 238.624 34.5259Z" fill="#263238"/>
<path d="M267.569 14.0164C267.574 15.3459 267.286 16.6601 266.725 17.8657C266.165 19.0712 265.346 20.1384 264.326 20.9914C263.306 21.8444 262.111 22.4623 260.825 22.8011C259.54 23.1399 258.195 23.1912 256.887 22.9515C254.862 22.5868 252.645 21.5599 250.899 22.6444C249.152 23.7289 248.979 26.5506 247.348 27.971C245.016 29.996 241.301 28.0957 238.336 28.9307C236.052 29.6121 234.622 31.8099 233.105 33.6334C231.589 35.4569 229.266 37.2228 227.021 36.5126C227.088 34.4503 227.391 32.4023 227.923 30.4087C228.474 28.3984 229.701 26.6394 231.397 25.4277C232.385 24.9111 233.346 24.3441 234.276 23.7289C236.196 22.1934 236.618 19.5253 237.789 17.3851C238.561 16.0095 239.65 14.8376 240.965 13.9664C242.28 13.0952 243.784 12.5498 245.351 12.3753C247.962 12.1065 250.64 12.8839 253.183 12.2505C255.054 11.7706 256.696 10.5518 258.596 10.1967C262.3 9.48647 265.736 12.1161 268.423 14.7938" fill="#263238"/>
<path d="M255.726 19.2857C257.387 18.8058 260.784 17.7309 261.667 16.2913C263.586 13.1626 267.013 11.032 270.497 11.2239C272.298 11.3636 274.006 12.0835 275.365 13.2756C276.723 14.4678 277.658 16.068 278.03 17.8365C280.194 17.9152 282.297 18.5752 284.117 19.7473C285.938 20.9193 287.409 22.56 288.376 24.497C289.371 26.5298 289.856 28.7738 289.791 31.0358C289.726 33.2979 289.112 35.5101 288.002 37.4823C287.284 38.4136 286.818 39.5143 286.649 40.6782C286.649 42.1562 287.724 43.3174 288.492 44.5171C290.584 47.8378 290.411 52.4061 288.808 56.0339C287.206 59.6617 286.044 60.919 283.741 61.6484C279.221 63.0592 283.741 72.1479 276.197 72.1479L274.681 45.2753C274.463 45.398 274.226 45.4855 273.98 45.5344C269.527 46.5422 268.942 37.8565 269.94 35.3708C268.262 33.9992 266.763 32.4226 265.477 30.6777C264.249 28.8638 263.164 23.9596 263.423 21.685C261.821 21.7426 254.997 19.516 255.726 19.2857Z" fill="#263238"/>
<path d="M274.057 45.4284C274.259 45.3324 282.234 42.8563 282.109 51.0333C281.985 59.2102 273.798 57.4059 273.789 57.1756C273.779 56.9452 274.057 45.4284 274.057 45.4284Z" fill="#CE947A"/>
<path d="M276.332 54.0659C276.332 54.0659 276.476 54.1715 276.716 54.2866C277.057 54.4269 277.44 54.4269 277.781 54.2866C278.654 53.9795 279.403 52.6167 279.46 51.1483C279.489 50.4484 279.365 49.7507 279.096 49.1041C279.021 48.848 278.886 48.6134 278.702 48.4198C278.519 48.2262 278.292 48.0791 278.04 47.9908C277.876 47.9455 277.702 47.958 277.546 48.0262C277.391 48.0943 277.263 48.214 277.186 48.3651C277.08 48.5954 277.128 48.7586 277.08 48.7682C277.032 48.7778 276.907 48.6338 276.975 48.2979C277.028 48.0963 277.146 47.9178 277.311 47.7892C277.536 47.6217 277.819 47.5493 278.098 47.5877C278.433 47.6593 278.744 47.8161 279.002 48.0431C279.259 48.27 279.453 48.5594 279.566 48.8833C279.905 49.5953 280.063 50.3798 280.027 51.1675C279.95 52.8182 279.067 54.3442 277.896 54.6705C277.677 54.7312 277.446 54.7421 277.222 54.7022C276.998 54.6623 276.785 54.5728 276.6 54.4402C276.351 54.2962 276.303 54.1139 276.332 54.0659Z" fill="#A56349"/>
<path d="M287.628 58.4615C287.129 59.0032 286.754 59.6473 286.529 60.3487C286.304 61.0501 286.235 61.7921 286.327 62.523C286.418 63.2539 286.668 63.956 287.058 64.5806C287.449 65.2051 287.97 65.7371 288.587 66.1393C288.252 66.4415 287.859 66.6729 287.432 66.8196C287.004 66.9664 286.552 67.0255 286.102 66.9935C285.785 68.0204 287.234 68.7306 287.532 69.7671C287.6 70.0847 287.583 70.4146 287.481 70.7232C287.38 71.0318 287.199 71.308 286.956 71.5235C286.47 71.9586 285.898 72.2857 285.276 72.4832C283.459 73.1346 281.553 73.5005 279.624 73.5677C279.067 73.6452 278.499 73.5995 277.962 73.4336C277.425 73.2678 276.93 72.9859 276.514 72.6079C275.993 71.8239 275.75 70.888 275.823 69.9495L275.621 62.9722C275.53 62.2881 275.657 61.5925 275.986 60.9856C276.511 60.3969 277.229 60.0156 278.011 59.9107L287.925 57.377" fill="#263238"/>
<path d="M312.773 217.902C311.496 210.416 303.828 174.273 303.828 174.273L308.569 87.8966C306.381 86.4282 277.272 75.8711 277.272 75.8711C277.272 75.8711 272.79 89.173 258.548 92.0906C244.305 95.0082 246.57 84.3456 246.57 84.3456C246.57 84.3456 218.738 99.2118 217.116 100.306C215.494 101.4 208.565 129.328 208.565 129.328L203.324 147.4L225.331 152.516C225.331 152.516 225.878 195.598 225.331 198.698C224.784 201.798 223.68 226.818 223.68 226.818L310.057 227.912C310.057 227.912 314.049 225.388 312.773 217.902Z" fill="#294493"/>
<path d="M308.569 87.9258C308.569 87.9258 313.896 93.1467 315.681 98.3101C317.466 103.473 322.984 137.333 322.984 137.333C322.984 137.333 292.695 141.613 292.695 141.076C292.695 140.538 295.363 121.651 296.256 115.777C297.148 109.904 308.569 87.9258 308.569 87.9258Z" fill="#294493"/>
<path d="M243.557 129.549L241.551 134.214H240.294L238.297 129.549H239.727L240.994 132.592L242.29 129.549H243.557Z" fill="white"/>
<path d="M243.528 131.882C243.493 131.361 243.616 130.842 243.88 130.392C244.145 129.942 244.538 129.581 245.01 129.358C245.482 129.135 246.01 129.058 246.526 129.139C247.041 129.22 247.521 129.454 247.901 129.811C248.282 130.168 248.547 130.631 248.661 131.14C248.775 131.65 248.733 132.181 248.541 132.667C248.349 133.152 248.015 133.568 247.583 133.861C247.151 134.154 246.641 134.31 246.119 134.31C245.787 134.331 245.454 134.283 245.141 134.171C244.828 134.058 244.542 133.883 244.299 133.656C244.056 133.428 243.862 133.153 243.73 132.848C243.597 132.543 243.529 132.214 243.528 131.882ZM247.367 131.882C247.354 131.634 247.268 131.395 247.121 131.196C246.973 130.997 246.771 130.845 246.538 130.759C246.305 130.674 246.052 130.659 245.811 130.716C245.569 130.773 245.35 130.899 245.18 131.08C245.01 131.26 244.896 131.487 244.854 131.731C244.811 131.976 244.841 132.227 244.94 132.454C245.039 132.682 245.203 132.875 245.411 133.01C245.619 133.146 245.862 133.217 246.11 133.216C246.283 133.219 246.454 133.186 246.614 133.119C246.774 133.052 246.917 132.953 247.037 132.827C247.156 132.702 247.247 132.553 247.306 132.39C247.364 132.227 247.389 132.054 247.377 131.882H247.367Z" fill="white"/>
<path d="M249.401 129.549H250.716V133.168H252.943V134.214H249.401V129.549Z" fill="white"/>
<path d="M253.375 132.141V129.549H254.69V132.093C254.69 132.899 255.025 133.216 255.582 133.216C256.139 133.216 256.455 132.899 256.455 132.093V129.549H257.761V132.141C257.724 132.697 257.477 133.219 257.07 133.6C256.662 133.981 256.126 134.193 255.568 134.193C255.01 134.193 254.473 133.981 254.066 133.6C253.659 133.219 253.412 132.697 253.375 132.141Z" fill="white"/>
<path d="M263.087 129.549V134.214H262.003L259.939 131.728V134.214H258.644V129.549H259.728L261.792 132.035V129.549H263.087Z" fill="white"/>
<path d="M265.007 130.595H263.577V129.549H267.752V130.595H266.331V134.214H265.007V130.595Z" fill="white"/>
<path d="M271.965 133.196V134.214H268.222V129.549H271.879V130.567H269.527V131.354H271.6V132.313H269.527V133.168L271.965 133.196Z" fill="white"/>
<path d="M276.466 133.196V134.214H272.723V129.549H276.379V130.567H274.028V131.354H276.101V132.313H274.028V133.168L276.466 133.196Z" fill="white"/>
<path d="M279.23 132.976H278.51V134.214H277.196V129.549H279.326C280.603 129.549 281.399 130.212 281.399 131.277C281.41 131.584 281.328 131.888 281.166 132.149C281.004 132.411 280.768 132.618 280.487 132.745L281.495 134.214H280.075L279.23 132.976ZM279.23 130.586H278.491V131.958H279.23C279.777 131.958 280.046 131.699 280.046 131.277C280.046 130.855 279.796 130.586 279.249 130.586H279.23Z" fill="white"/>
<path d="M225.408 166.893C225.357 166.741 225.331 166.582 225.332 166.422C225.332 166.048 225.255 165.587 225.197 165.04C225.111 163.85 225.015 162.161 224.948 159.973C224.804 155.683 224.756 149.771 224.804 143.226C224.852 136.68 224.967 130.749 225.092 126.488C225.159 124.405 225.226 122.649 225.264 121.42C225.264 120.864 225.322 120.413 225.341 120.038C225.341 119.876 225.364 119.715 225.408 119.559C225.431 119.718 225.431 119.879 225.408 120.038C225.408 120.413 225.408 120.873 225.408 121.42C225.408 122.697 225.408 124.415 225.408 126.497C225.408 130.845 225.322 136.728 225.264 143.235C225.207 149.742 225.216 155.712 225.264 159.963C225.264 162.104 225.322 163.802 225.36 165.031C225.36 165.587 225.36 165.991 225.36 166.413C225.397 166.57 225.413 166.731 225.408 166.893Z" fill="#263238"/>
<path d="M295.43 110.565C295.48 110.938 295.48 111.316 295.43 111.688C295.43 112.523 295.43 113.541 295.382 114.75C295.382 117.456 295.325 120.969 295.286 124.865C295.248 128.762 295.181 132.39 295.047 134.981C294.979 136.277 294.912 137.323 294.835 138.043C294.817 138.418 294.763 138.791 294.672 139.156C294.623 138.783 294.623 138.406 294.672 138.033C294.672 137.198 294.672 136.181 294.672 134.971C294.672 132.265 294.73 128.752 294.768 124.856C294.807 120.959 294.883 117.332 295.008 114.74C295.075 113.445 295.152 112.399 295.219 111.679C295.253 111.302 295.324 110.929 295.43 110.565Z" fill="#263238"/>
<path d="M307.657 88.6167C303.484 90.082 299.839 92.7544 297.187 96.2946C297.407 95.6836 297.732 95.1154 298.147 94.615C299.101 93.3485 300.239 92.2324 301.525 91.304C302.804 90.3674 304.214 89.6236 305.709 89.0966C306.324 88.8201 306.984 88.6575 307.657 88.6167Z" fill="#263238"/>
<path d="M223.805 109.981C223.681 110.057 222.414 107.869 220.542 105.403C218.671 102.936 216.934 101.093 217.039 100.988C219.934 103.435 222.231 106.511 223.757 109.981H223.805Z" fill="#263238"/>
<path d="M276.812 164.138C276.724 164.295 276.621 164.443 276.505 164.579C276.255 164.896 275.948 165.299 275.545 165.779C274.729 166.825 273.501 168.303 271.946 170.088C267.884 174.749 263.575 179.19 259.037 183.39C254.499 187.586 249.741 191.539 244.785 195.233C242.866 196.644 241.311 197.757 240.207 198.487L238.931 199.331C238.789 199.439 238.634 199.53 238.47 199.6C238.592 199.471 238.727 199.355 238.873 199.254L240.092 198.295C241.167 197.508 242.693 196.375 244.574 194.907C248.317 192.028 253.394 187.891 258.701 182.987C264.009 178.083 268.51 173.342 271.687 169.819C273.27 168.063 274.566 166.623 275.401 165.616L276.361 164.474C276.668 164.253 276.764 164.128 276.812 164.138Z" fill="#263238"/>
<path d="M313.301 274.805L324.75 239.746C326.459 234.506 328.33 229.016 332.428 225.35C334.818 223.2 338.455 221.799 341.239 223.431C342.149 224.044 342.898 224.869 343.419 225.835C343.941 226.802 344.22 227.88 344.233 228.978C344.247 231.173 343.887 233.354 343.168 235.427C338.561 251.388 332.956 267.031 327.131 282.589L327.726 281.514" fill="#294493"/>
<path d="M328.589 266.782C328.589 266.935 326.776 266.542 324.75 265.669C322.725 264.795 321.18 263.816 321.267 263.672C321.353 263.528 322.965 264.267 324.981 265.112C326.996 265.957 328.657 266.619 328.589 266.782Z" fill="#263238"/>
<path d="M332.428 258.317C332.361 258.47 330.509 257.712 328.157 256.791C325.806 255.869 323.954 255.111 324.002 254.948C324.05 254.785 326.036 255.294 328.378 256.234C330.72 257.175 332.428 258.163 332.428 258.317Z" fill="#263238"/>
<path d="M335.941 251.32C335.845 251.464 334.021 250.293 331.574 249.247C329.127 248.201 327.044 247.664 327.083 247.481C327.121 247.299 329.319 247.606 331.814 248.691C334.309 249.775 336.037 251.196 335.941 251.32Z" fill="#263238"/>
<path d="M338.187 242.5C338.072 242.635 336.498 241.339 334.29 240.216C332.083 239.093 330.135 238.546 330.173 238.373C330.211 238.201 332.284 238.498 334.569 239.679C336.853 240.859 338.292 242.395 338.187 242.5Z" fill="#263238"/>
<path d="M313.07 244.823H309.654V251.589H313.07V244.823Z" fill="#263238"/>
<path d="M309.251 264.795V250.677H313.416V262.453C313.416 262.453 317.802 262.578 318.349 264.507C319.549 268.749 319.021 278.289 319.021 278.289L309.251 264.795Z" fill="#455A64"/>
<path d="M345.289 302.311C344.108 295.219 342.294 288.203 341.949 281.024C341.718 276.101 342.189 271.139 341.575 266.244C340.836 260.351 338.561 254.775 336.306 249.286C334.847 245.725 333.254 241.992 330.211 239.621C328.368 238.239 326.141 237.464 323.839 237.404C319.654 235.686 308.176 235.197 304.548 242.894C302.628 246.982 302.398 251.637 301.294 256.033C299.816 261.945 300.882 263.893 298.943 269.67C294.826 282.022 288.578 297.349 290.401 310.248C290.757 312.753 294.931 316.88 296.352 318.972C298.396 321.995 302.11 323.348 305.719 324.116C315.911 326.249 326.517 325.114 336.027 320.872C339.425 319.346 342.813 317.273 344.53 313.972C346.354 310.459 345.941 306.227 345.289 302.311ZM334.405 262.482C332.486 264.094 329.683 263.307 327.198 263.183C324.213 263.029 321.295 263.998 318.349 264.507C315.403 265.016 312.111 264.997 309.711 263.173C307.957 261.681 306.855 259.563 306.64 257.271C306.434 255.003 306.56 252.717 307.014 250.485C307.216 248.742 307.662 247.037 308.339 245.418C309.026 243.782 310.309 242.468 311.928 241.742C313.848 240.782 320.777 240.149 323.445 239.746C325.817 240.936 327.88 242.661 329.472 244.785C331.605 247.74 333.332 250.968 334.607 254.382C335.231 255.689 335.636 257.09 335.807 258.528C335.894 259.25 335.813 259.983 335.57 260.669C335.327 261.356 334.928 261.976 334.405 262.482Z" fill="#FAFAFA"/>
<path d="M334.405 262.482C334.874 262.007 335.231 261.433 335.451 260.803C335.703 260.049 335.791 259.251 335.71 258.461C335.577 257.396 335.293 256.355 334.866 255.371C333.808 252.678 332.56 250.065 331.132 247.549C329.341 244.314 326.642 241.675 323.368 239.957H323.503L317.888 240.696C316.928 240.831 315.969 240.984 314.951 241.166C313.966 241.322 313 241.586 312.072 241.953C310.549 242.636 309.335 243.861 308.665 245.389C308.064 246.757 307.654 248.2 307.446 249.679C307.206 251.148 306.966 252.559 306.87 254.017C306.752 255.41 306.83 256.812 307.101 258.183C307.374 259.483 307.927 260.708 308.723 261.772C309.499 262.766 310.536 263.527 311.717 263.97C312.848 264.37 314.04 264.568 315.239 264.555C317.414 264.469 319.574 264.148 321.679 263.595C323.451 263.167 325.269 262.964 327.092 262.991C328.695 263.087 330.048 263.336 331.161 263.336C332.017 263.379 332.87 263.224 333.657 262.885C334.184 262.626 334.415 262.415 334.434 262.434C334.221 262.654 333.975 262.839 333.705 262.981C332.912 263.362 332.04 263.549 331.161 263.528C330.029 263.528 328.656 263.336 327.082 263.269C325.286 263.273 323.497 263.499 321.756 263.941C319.622 264.5 317.434 264.822 315.23 264.901C313.982 264.926 312.739 264.725 311.564 264.306C310.302 263.85 309.195 263.049 308.368 261.993C306.724 259.643 306.015 256.765 306.381 253.921C306.477 252.463 306.717 251.042 306.957 249.526C307.175 248.004 307.598 246.519 308.214 245.111C308.935 243.461 310.251 242.142 311.899 241.416C312.873 241.031 313.887 240.757 314.923 240.6C315.882 240.418 316.9 240.264 317.879 240.13L323.483 239.41H323.56H323.627C326.973 241.175 329.719 243.894 331.516 247.222C332.94 249.764 334.165 252.411 335.183 255.14C335.605 256.154 335.876 257.224 335.989 258.317C336.055 259.135 335.94 259.957 335.653 260.726C335.472 261.204 335.201 261.644 334.856 262.022C334.732 262.199 334.58 262.354 334.405 262.482Z" fill="#263238"/>
<path d="M345.289 302.311C345.289 302.311 345.48 303.127 345.682 304.71C345.817 305.687 345.894 306.671 345.912 307.657C345.95 309.006 345.811 310.355 345.5 311.668C345.099 313.326 344.306 314.863 343.187 316.15C341.842 317.654 340.24 318.905 338.455 319.845C334.12 322.121 329.458 323.71 324.635 324.558C318.787 325.619 312.795 325.619 306.947 324.558C305.338 324.295 303.755 323.893 302.216 323.358C300.602 322.819 299.102 321.986 297.791 320.901C297.136 320.337 296.555 319.692 296.064 318.982C295.574 318.291 295.018 317.628 294.461 316.956C293.292 315.618 292.209 314.208 291.217 312.734C290.689 311.963 290.329 311.09 290.161 310.171C290.075 309.259 289.941 308.348 289.912 307.426C289.819 305.564 289.851 303.698 290.008 301.841C290.358 298.02 291.026 294.235 292.004 290.525C292.964 286.744 294.163 282.953 295.45 279.143C296.102 277.223 296.764 275.304 297.427 273.385C298.089 271.465 298.799 269.546 299.346 267.549C299.81 265.538 300.093 263.488 300.191 261.426C300.366 259.372 300.716 257.336 301.237 255.342C302.148 251.407 302.465 247.337 304.001 243.623C304.185 243.16 304.403 242.711 304.653 242.28C304.885 241.835 305.158 241.414 305.469 241.022C306.067 240.228 306.778 239.526 307.581 238.94C309.172 237.813 310.979 237.026 312.888 236.627C314.737 236.221 316.631 236.066 318.522 236.166C320.375 236.232 322.208 236.585 323.954 237.212H324.098V237.375L323.877 237.145C326.578 237.207 329.164 238.251 331.152 240.082C332.95 241.882 334.372 244.022 335.336 246.378C337.231 250.639 338.888 255.003 340.298 259.449C340.92 261.5 341.385 263.595 341.69 265.716C341.944 267.699 342.069 269.696 342.064 271.695C342.064 275.534 341.929 279.066 342.169 282.252C342.386 285.097 342.748 287.929 343.254 290.737C343.676 293.193 344.079 295.295 344.396 297.004C344.713 298.712 344.943 300.017 345.097 300.91C345.164 301.342 345.212 301.677 345.25 301.917C345.289 302.157 345.25 302.263 345.25 302.263C345.25 302.263 345.25 302.148 345.173 301.927C345.097 301.706 345.058 301.351 344.981 300.919C344.799 300.017 344.55 298.712 344.214 297.023C343.878 295.334 343.446 293.232 342.995 290.775C342.471 287.962 342.09 285.123 341.853 282.272C341.594 279.066 341.738 275.554 341.699 271.715C341.686 269.731 341.549 267.75 341.286 265.783C340.981 263.681 340.515 261.606 339.895 259.574C338.461 255.149 336.788 250.804 334.885 246.56C333.938 244.26 332.541 242.172 330.777 240.418C328.869 238.667 326.389 237.671 323.8 237.615H323.579V237.375L323.723 237.586C322.023 236.997 320.243 236.674 318.445 236.627C316.597 236.533 314.744 236.685 312.936 237.078C311.091 237.464 309.345 238.228 307.811 239.324C307.045 239.88 306.366 240.546 305.795 241.301C305.502 241.675 305.245 242.077 305.028 242.5C304.786 242.92 304.574 243.356 304.394 243.806C302.907 247.414 302.58 251.483 301.669 255.437C301.15 257.41 300.803 259.423 300.632 261.455C300.532 263.543 300.246 265.618 299.778 267.655C299.24 269.68 298.521 271.599 297.858 273.538C297.196 275.477 296.544 277.377 295.881 279.296C294.595 283.135 293.405 286.878 292.446 290.65C291.466 294.331 290.795 298.087 290.44 301.879C290.285 303.714 290.25 305.558 290.334 307.398C290.334 308.309 290.507 309.211 290.584 310.104C290.726 310.958 291.054 311.77 291.543 312.484C292.519 313.945 293.587 315.343 294.739 316.669C295.296 317.35 295.853 318.012 296.361 318.722C296.822 319.434 297.378 320.079 298.012 320.642C299.281 321.691 300.732 322.498 302.292 323.022C303.812 323.55 305.372 323.951 306.957 324.222C312.753 325.298 318.695 325.324 324.501 324.298C329.295 323.476 333.934 321.919 338.254 319.682C340.016 318.766 341.605 317.548 342.947 316.083C344.047 314.826 344.833 313.326 345.241 311.707C345.746 309.442 345.84 307.105 345.519 304.806C345.423 304.029 345.346 303.434 345.298 303.012C345.25 302.589 345.289 302.311 345.289 302.311Z" fill="#263238"/>
<path d="M334.405 262.482C334.86 261.999 335.209 261.427 335.432 260.802C335.683 260.049 335.771 259.251 335.691 258.461C335.559 257.397 335.271 256.359 334.837 255.38C333.779 252.689 332.528 250.078 331.094 247.568C329.308 244.337 326.612 241.704 323.339 239.995H323.503L317.888 240.734C316.928 240.878 315.969 241.022 314.961 241.205C313.976 241.361 313.011 241.621 312.082 241.982C310.573 242.666 309.37 243.882 308.703 245.399C308.105 246.763 307.698 248.203 307.494 249.679C307.245 251.138 307.014 252.558 306.909 254.017C306.561 256.716 307.216 259.448 308.751 261.695C309.52 262.684 310.551 263.439 311.727 263.874C312.851 264.273 314.036 264.474 315.23 264.469C317.401 264.377 319.556 264.055 321.66 263.509C323.434 263.075 325.256 262.872 327.082 262.904C328.695 263 330.038 263.259 331.152 263.259C332.003 263.305 332.854 263.154 333.637 262.818C334.165 262.568 334.396 262.357 334.424 262.376C334.216 262.604 333.969 262.793 333.695 262.933C332.905 263.322 332.032 263.513 331.152 263.49C330.019 263.49 328.647 263.298 327.073 263.24C325.279 263.248 323.493 263.477 321.756 263.922C319.622 264.501 317.43 264.842 315.22 264.939C313.969 264.956 312.726 264.754 311.544 264.344C310.272 263.885 309.154 263.077 308.32 262.012C306.671 259.65 305.96 256.759 306.323 253.902C306.419 252.443 306.659 251.023 306.899 249.506C307.109 247.976 307.536 246.483 308.166 245.072C308.891 243.413 310.214 242.088 311.871 241.358C312.846 240.965 313.864 240.688 314.903 240.533C315.863 240.341 316.89 240.197 317.859 240.063L323.474 239.343H323.56H323.637C326.989 241.115 329.74 243.84 331.545 247.174C332.962 249.721 334.184 252.371 335.202 255.102C335.627 256.117 335.895 257.192 335.998 258.288C336.06 259.11 335.943 259.935 335.653 260.706C335.472 261.185 335.201 261.625 334.856 262.002C334.736 262.188 334.583 262.351 334.405 262.482Z" fill="#263238"/>
<path d="M337.515 292.541C337.436 291.904 337.199 291.297 336.825 290.776C336.451 290.254 335.952 289.835 335.375 289.556C333.59 288.779 331.536 289.853 330.24 291.331C328.944 292.809 328.244 294.671 327.083 296.217C326.062 297.553 324.746 298.635 323.238 299.378C321.729 300.121 320.069 300.504 318.387 300.497C314.299 300.497 310.22 298.088 306.314 299.297C304.98 299.71 303.646 300.756 303.636 302.176C303.722 303.134 304.164 304.024 304.874 304.672C306.824 306.757 309.39 308.162 312.197 308.683C317.053 308.519 321.83 307.404 326.257 305.401C331.382 303.213 335.154 300.507 336.92 296.303C337.462 295.128 337.668 293.826 337.515 292.541Z" fill="#E0E0E0"/>
<path d="M336.843 298.299C336.611 298.634 336.337 298.937 336.027 299.201C335.228 299.975 334.385 300.703 333.503 301.38C327.62 305.891 320.503 308.502 313.099 308.866C311.987 308.937 310.871 308.937 309.759 308.866C309.351 308.866 308.945 308.814 308.55 308.712C308.55 308.597 310.287 308.712 313.07 308.472C320.336 307.877 327.303 305.316 333.225 301.063C335.509 299.413 336.776 298.213 336.843 298.299Z" fill="#263238"/>
<path d="M335.432 276.628C335.443 277.141 335.394 277.653 335.288 278.154C335.154 279.114 334.943 280.535 334.597 282.262C334.2 284.297 333.639 286.297 332.918 288.241C332.038 290.645 330.76 292.884 329.136 294.863C327.494 296.857 325.379 298.407 322.984 299.374C321.022 300.116 318.927 300.442 316.832 300.334C315.427 300.282 314.036 300.04 312.696 299.614C312.226 299.461 311.871 299.317 311.631 299.211C311.391 299.105 311.276 299.038 311.285 299.019C313.096 299.534 314.961 299.83 316.842 299.902C318.875 299.937 320.894 299.569 322.783 298.817C325.078 297.863 327.102 296.356 328.676 294.432C332.092 290.343 333.369 285.496 334.175 282.137C334.578 280.429 334.856 279.037 335.058 278.068C335.134 277.577 335.26 277.095 335.432 276.628Z" fill="#263238"/>
<path d="M304.413 293.424C303.806 293.028 303.289 292.508 302.897 291.898C301.84 290.508 301.067 288.923 300.622 287.233C300.168 285.542 300.045 283.779 300.258 282.041C300.301 281.32 300.491 280.615 300.814 279.968C301.016 279.968 300.133 283.231 301.198 287.07C302.264 290.909 304.596 293.309 304.413 293.424Z" fill="#263238"/>
<path d="M305.891 264.613C305.484 263.418 305.191 262.187 305.018 260.937C304.421 257.93 304.234 254.857 304.461 251.8C304.714 248.708 305.795 245.741 307.59 243.211C308.14 242.453 308.785 241.769 309.51 241.176C309.757 240.934 310.047 240.739 310.364 240.6C309.493 241.504 308.685 242.466 307.945 243.479C306.312 246.004 305.324 248.891 305.066 251.887C304.846 254.895 304.972 257.919 305.44 260.899C305.669 262.126 305.819 263.366 305.891 264.613Z" fill="#263238"/>
<path d="M298.05 140.673L305.584 174.532L307.84 227.682L324.251 226.463L326.631 172.296L321.295 137.573L298.05 140.673Z" fill="#CE947A"/>
<path d="M309.587 247.261C309.425 247.337 309.248 247.376 309.068 247.376C308.889 247.375 308.713 247.335 308.551 247.258C308.389 247.181 308.247 247.069 308.134 246.93C308.021 246.791 307.94 246.629 307.897 246.455C307.274 244.132 305.661 237.817 305.7 235.475C305.757 232.529 307.446 221.175 307.446 221.175L324.558 221.29L328.858 236.905C328.858 236.905 327.735 243.316 326.612 243.691C325.898 243.872 325.174 244.013 324.443 244.113L323.973 246.08C323.013 249.084 319.453 248.259 319.453 248.259C319.294 248.839 319.004 249.374 318.607 249.825C318.209 250.276 317.714 250.63 317.159 250.86C316.645 251.042 316.09 251.075 315.558 250.955C315.026 250.834 314.54 250.565 314.155 250.178C314.155 250.178 311.813 251.551 310.786 250.409C309.759 249.267 310.047 246.81 310.047 246.81C309.95 247.009 309.788 247.168 309.587 247.261Z" fill="#CE947A"/>
<path d="M310.085 248.096C310.113 247.921 310.113 247.743 310.085 247.568C310.091 247.09 310.068 246.613 310.018 246.138C309.922 244.938 309.673 243.259 309.394 241.474C309.139 239.933 308.976 238.379 308.905 236.819C308.905 235.629 309.049 234.899 309.001 234.899C308.922 235.057 308.867 235.225 308.838 235.398C308.739 235.869 308.684 236.348 308.675 236.828C308.679 238.405 308.817 239.978 309.087 241.531C309.366 243.345 309.644 244.986 309.797 246.176C309.951 247.366 310.037 248.096 310.085 248.096Z" fill="#A56349"/>
<path d="M314.059 250.197C314.218 249.799 314.308 249.378 314.328 248.95C314.445 247.93 314.474 246.903 314.414 245.879C314.347 244.679 314.232 243.594 314.126 242.827C314.101 242.4 314.024 241.977 313.896 241.569C313.884 243.011 313.949 244.453 314.088 245.888C314.145 246.901 314.145 247.917 314.088 248.931C314.042 249.351 314.032 249.775 314.059 250.197Z" fill="#A56349"/>
<path d="M319.491 248.288C319.75 247.087 319.838 245.856 319.75 244.631C319.763 243.403 319.589 242.179 319.232 241.003C319.146 241.003 319.366 242.635 319.424 244.641C319.482 246.647 319.395 248.278 319.491 248.288Z" fill="#A56349"/>
<path d="M323.973 246.08C324.37 244.218 324.331 242.29 323.858 240.446C323.827 241.387 323.85 242.329 323.925 243.268C323.963 244.813 323.886 246.07 323.973 246.08Z" fill="#A56349"/>
<path d="M318.992 238.662C318.992 238.662 319.088 238.46 318.992 238.134C318.91 237.708 318.687 237.322 318.359 237.04C318.02 236.763 317.596 236.611 317.159 236.608C316.833 236.608 316.641 236.704 316.65 236.742C317.185 236.797 317.699 236.982 318.147 237.28C318.54 237.662 318.831 238.138 318.992 238.662Z" fill="#A56349"/>
<path d="M323.848 237.03C323.935 237.03 323.848 236.387 323.186 235.974C323.019 235.832 322.816 235.738 322.6 235.703C322.383 235.667 322.161 235.691 321.958 235.772C321.958 235.868 322.495 235.888 323.013 236.243C323.531 236.598 323.791 237.058 323.848 237.03Z" fill="#A56349"/>
<path d="M313.32 237.865C313.407 237.865 313.436 237.404 313.023 237.087C312.61 236.771 312.168 236.895 312.197 236.982C312.226 237.068 312.533 237.097 312.831 237.337C313.128 237.577 313.234 237.875 313.32 237.865Z" fill="#A56349"/>
<path d="M307.475 221.175C307.472 221.22 307.472 221.265 307.475 221.31L307.408 221.732C307.341 222.116 307.254 222.692 307.149 223.354C306.928 224.765 306.621 226.828 306.275 229.419C306.112 230.725 305.93 232.145 305.776 233.7C305.673 234.505 305.638 235.317 305.671 236.128C305.741 236.991 305.856 237.849 306.016 238.7C306.333 240.447 306.755 242.28 307.226 244.18C307.35 244.65 307.466 245.14 307.59 245.62C307.657 245.86 307.725 246.1 307.782 246.349C307.84 246.622 307.966 246.876 308.147 247.088C308.342 247.311 308.607 247.46 308.898 247.513C309.189 247.565 309.489 247.517 309.75 247.376C309.826 247.319 309.88 247.238 309.903 247.146C309.93 247.077 309.952 247.006 309.97 246.935C309.97 246.8 310.028 246.675 310.047 246.541C310.081 246.27 310.101 245.998 310.105 245.725C310.105 245.685 310.089 245.646 310.06 245.617C310.031 245.588 309.992 245.572 309.951 245.572C309.911 245.572 309.871 245.588 309.843 245.617C309.814 245.646 309.798 245.685 309.798 245.725C309.78 246.417 309.806 247.11 309.874 247.798C309.929 248.512 310.087 249.213 310.345 249.881C310.486 250.244 310.733 250.555 311.055 250.774C311.396 250.966 311.788 251.05 312.178 251.013C312.926 250.932 313.649 250.694 314.299 250.313H314.097C314.37 250.595 314.697 250.82 315.057 250.975C315.525 251.16 316.031 251.23 316.532 251.18C317.032 251.13 317.514 250.961 317.936 250.687C318.75 250.118 319.34 249.283 319.606 248.326L319.414 248.441C320.375 248.647 321.375 248.571 322.293 248.221C322.734 248.035 323.129 247.753 323.447 247.397C323.766 247.04 324.001 246.616 324.136 246.157C324.29 245.485 324.443 244.833 324.597 244.18L324.482 244.295C324.904 244.238 325.326 244.161 325.739 244.084L326.353 243.959L326.67 243.873C326.786 243.821 326.89 243.746 326.977 243.652C327.245 243.32 327.453 242.943 327.591 242.539C327.745 242.155 327.869 241.771 327.985 241.387C328.396 239.931 328.732 238.454 328.992 236.963V236.905L325.806 225.552C325.422 224.218 325.125 223.162 324.914 222.423C324.808 222.077 324.722 221.799 324.664 221.598C324.645 221.504 324.612 221.414 324.568 221.329C324.581 221.423 324.6 221.516 324.626 221.607C324.683 221.818 324.75 222.087 324.837 222.442C325.029 223.191 325.317 224.246 325.672 225.6C326.411 228.335 327.466 232.241 328.743 236.982V236.925C328.479 238.403 328.139 239.867 327.726 241.311C327.61 241.685 327.486 242.059 327.332 242.433C327.205 242.801 327.016 243.145 326.775 243.451C326.723 243.513 326.658 243.562 326.583 243.595L326.296 243.671L325.691 243.796C325.278 243.873 324.866 243.94 324.443 243.998C324.414 244.005 324.388 244.019 324.366 244.039C324.344 244.059 324.328 244.085 324.318 244.113C324.165 244.766 324.011 245.418 323.848 246.032C323.735 246.459 323.526 246.854 323.237 247.187C322.947 247.519 322.585 247.781 322.178 247.952C321.326 248.271 320.401 248.341 319.51 248.153C319.47 248.149 319.429 248.157 319.394 248.178C319.36 248.199 319.333 248.231 319.318 248.269C319.072 249.147 318.529 249.913 317.783 250.438C317.398 250.686 316.96 250.839 316.504 250.884C316.048 250.929 315.588 250.865 315.163 250.697C314.836 250.565 314.539 250.369 314.289 250.121C314.26 250.1 314.225 250.088 314.188 250.088C314.152 250.088 314.117 250.1 314.088 250.121C313.483 250.479 312.809 250.704 312.111 250.783C311.779 250.819 311.444 250.752 311.151 250.591C310.889 250.402 310.685 250.143 310.565 249.843C310.323 249.201 310.171 248.53 310.114 247.846C310.051 247.173 310.025 246.497 310.038 245.821H309.731C309.726 246.075 309.706 246.328 309.673 246.579C309.673 246.704 309.673 246.839 309.606 246.954C309.539 247.069 309.5 247.194 309.529 247.232C309.321 247.312 309.096 247.335 308.876 247.299C308.654 247.249 308.453 247.132 308.3 246.963C308.147 246.793 308.044 246.584 308.003 246.359C307.945 246.109 307.878 245.869 307.811 245.629C307.686 245.149 307.562 244.67 307.446 244.19C306.966 242.27 306.487 240.476 306.208 238.738C306.046 237.897 305.927 237.049 305.853 236.195C305.819 235.398 305.848 234.598 305.94 233.805C306.084 232.26 306.247 230.83 306.41 229.535C306.736 226.962 306.995 224.899 307.178 223.45C307.274 222.759 307.341 222.212 307.389 221.828C307.389 221.655 307.389 221.511 307.389 221.406C307.389 221.3 307.475 221.175 307.475 221.175Z" fill="#A56349"/>
<path d="M246.57 76.1399C252.094 76.1503 257.497 74.5166 262.089 71.4468C262.089 71.4468 258.548 80.0844 246.589 79.2398L246.57 76.1399Z" fill="#A56349"/>
<path opacity="0.3" d="M294.701 141.123L298.05 140.672L304.164 168.15L303.828 174.273L306.007 184.59L306.736 201.788C306.736 201.788 298.492 175.933 298.05 169.762C297.571 163.14 294.701 141.085 294.701 141.085" fill="black"/>
<path d="M144.925 411.395C144.925 411.395 146.009 418.209 145.971 419.399L150.77 423.545L163.016 420.81L164.024 410.79L144.925 411.395Z" fill="#F4C3AE"/>
<path d="M163.265 419.303V420.397C163.265 420.397 181.778 427.576 182.018 431.069L145.433 431.319L145.846 419.14C148.567 420.418 151.532 421.095 154.538 421.123C157.544 421.151 160.521 420.53 163.265 419.303Z" fill="#294493"/>
<g opacity="0.6">
<path d="M145.453 431.319L145.549 428.392L180.579 429.217C180.579 429.217 182.21 429.918 182.038 431.069L145.453 431.319Z" fill="white"/>
</g>
<path d="M163.419 420.493C163.419 420.675 162.517 420.761 161.643 421.337C160.77 421.913 160.309 422.681 160.137 422.604C159.964 422.527 160.233 421.501 161.308 420.819C162.382 420.138 163.457 420.33 163.419 420.493Z" fill="#263238"/>
<path d="M167.268 422.057C167.268 422.23 166.538 422.537 165.933 423.295C165.329 424.053 165.166 424.86 164.974 424.85C164.782 424.84 164.676 423.833 165.444 422.931C166.212 422.028 167.258 421.884 167.268 422.057Z" fill="#263238"/>
<path d="M169.475 426.635C169.312 426.635 169.062 425.781 169.475 424.802C169.887 423.823 170.761 423.42 170.838 423.573C170.914 423.727 170.396 424.245 170.041 425.061C169.686 425.877 169.657 426.616 169.475 426.635Z" fill="#263238"/>
<path d="M184.763 411.395C184.763 411.395 185.848 418.209 185.81 419.399L190.608 423.545L202.864 420.81L203.881 410.79L184.763 411.395Z" fill="#F4C3AE"/>
<path d="M203.113 419.303V420.397C203.113 420.397 221.627 427.576 221.867 431.069L185.272 431.319L185.685 419.14C188.407 420.419 191.373 421.095 194.381 421.123C197.389 421.152 200.368 420.531 203.113 419.303Z" fill="#294493"/>
<g opacity="0.6">
<path d="M185.291 431.319L185.397 428.392L220.427 429.217C220.427 429.217 222.059 429.918 221.886 431.069L185.291 431.319Z" fill="white"/>
</g>
<path d="M203.257 420.493C203.257 420.675 202.365 420.761 201.482 421.337C200.599 421.913 200.148 422.681 199.985 422.604C199.822 422.527 200.081 421.501 201.146 420.819C202.211 420.138 203.296 420.33 203.257 420.493Z" fill="#263238"/>
<path d="M207.106 422.057C207.106 422.23 206.376 422.537 205.772 423.295C205.167 424.053 205.004 424.86 204.812 424.85C204.62 424.84 204.515 423.833 205.282 422.931C206.05 422.028 207.106 421.884 207.106 422.057Z" fill="#263238"/>
<path d="M209.313 426.635C209.16 426.635 208.901 425.781 209.313 424.802C209.726 423.823 210.599 423.42 210.676 423.573C210.753 423.727 210.235 424.245 209.88 425.061C209.524 425.877 209.496 426.616 209.313 426.635Z" fill="#263238"/>
<path d="M215.542 240.552H135.116L126.805 278.635L143.418 414.034H169.139L175.022 294.777L181.212 414.034H208.785L220.369 280.132L215.542 240.552Z" fill="#263238"/>
<path d="M154.061 412.143C153.917 412.143 153.572 388.275 153.274 358.849C152.977 329.424 152.852 305.517 152.958 305.517C153.063 305.517 153.447 329.366 153.735 358.811C154.023 388.255 154.196 412.134 154.061 412.143Z" fill="#455A64"/>
<path d="M195.244 411.682C195.235 411.583 195.235 411.484 195.244 411.385C195.244 411.164 195.292 410.876 195.33 410.511C195.416 409.715 195.532 408.592 195.695 407.162C196.021 404.283 196.463 400.05 196.962 394.849C197.461 389.647 197.921 383.447 198.43 376.546C198.939 369.646 199.246 362.064 199.476 354.098C199.706 346.132 199.735 338.522 199.687 331.612C199.639 324.702 199.447 318.482 199.236 313.262C199.025 308.041 198.824 303.808 198.651 300.891C198.584 299.461 198.526 298.338 198.478 297.531C198.478 297.167 198.478 296.879 198.478 296.658C198.472 296.559 198.472 296.46 198.478 296.361C198.509 296.457 198.525 296.557 198.526 296.658L198.612 297.522C198.67 298.328 198.766 299.441 198.881 300.881C199.111 303.76 199.371 308.021 199.62 313.242C199.87 318.463 200.071 324.692 200.177 331.612C200.282 338.531 200.177 346.132 200.004 354.108C199.831 362.083 199.38 369.684 198.92 376.585C198.459 383.485 197.893 389.685 197.346 394.887C196.798 400.089 196.309 404.292 195.916 407.191C195.714 408.611 195.57 409.724 195.455 410.521C195.455 410.886 195.359 411.174 195.33 411.394C195.312 411.493 195.283 411.59 195.244 411.682Z" fill="#455A64"/>
<path d="M172.028 118.368L141.316 120.029L138.811 131.603C138.811 131.603 147.286 138.407 148.13 138.686C148.975 138.964 168.285 141.661 168.285 141.661C168.285 141.661 189.063 131.977 188.785 132.064C188.506 132.15 172.028 118.368 172.028 118.368Z" fill="#F4C3AE"/>
<path d="M145.28 64.7671C143.533 62.9532 140.577 63.2987 138.101 63.8073C136.642 64.0163 135.222 64.4399 133.888 65.0646C133.223 65.3854 132.636 65.8467 132.167 66.4168C131.698 66.9868 131.358 67.6519 131.172 68.3661C130.74 70.5639 132.304 72.7425 132.026 74.9691C131.88 75.7442 131.567 76.4785 131.11 77.1213C130.652 77.7642 130.061 78.3003 129.377 78.6928C128.003 79.4719 126.522 80.0443 124.981 80.3916C125.738 81.3466 126.685 82.1335 127.762 82.7019C128.84 83.2704 130.024 83.6079 131.239 83.693C131.095 84.4896 130.078 84.72 129.319 84.8255C128.561 84.9311 127.496 85.3822 127.611 86.1884C127.723 86.5897 127.984 86.933 128.341 87.1481C132.597 90.3351 137.84 91.9187 143.149 91.6205C145.625 91.4765 148.245 90.8143 149.867 88.962C151.489 87.1097 151.787 84.768 151.787 82.455C151.741 79.2756 151.018 76.1425 149.666 73.2646C148.314 70.3867 146.364 67.8301 143.946 65.7652" fill="#E0E0E0"/>
<path d="M143.927 65.9187C143.545 64.3362 143.531 62.6871 143.886 61.0984C144.241 59.5097 144.956 58.0237 145.976 56.7546C146.996 55.4856 148.293 54.4674 149.768 53.7783C151.243 53.0892 152.856 52.7477 154.484 52.7799C155.62 52.9396 156.776 52.8645 157.881 52.5592C158.799 52.0409 159.62 51.3689 160.309 50.5725C162.555 48.5379 165.684 47.8565 168.669 47.3862C172.92 46.7144 177.374 46.3305 181.433 47.7413C185.493 49.1521 189.054 52.7991 189.111 57.0987C189.111 59.0182 188.506 60.8225 188.401 62.7036C188.295 64.5846 188.919 66.744 190.627 67.5022C191.731 68.0205 193.171 67.9245 193.958 68.8555C194.245 69.2839 194.393 69.7914 194.379 70.3073C194.365 70.8232 194.191 71.3221 193.881 71.7347C193.217 72.5434 192.385 73.1983 191.443 73.6541C192.224 73.8648 192.914 74.3266 193.407 74.9684C193.9 75.6101 194.167 76.3961 194.169 77.2051C194.14 78.0136 193.931 78.8054 193.56 79.5239C193.188 80.2424 192.662 80.8697 192.019 81.3608C190.725 82.3304 189.235 83.0052 187.652 83.3378C180.234 85.1901 172.354 83.2803 165.377 80.1611C157.68 76.7032 150.708 71.8184 144.829 65.7651L145.424 65.0837" fill="#E0E0E0"/>
<path d="M142.026 69.4887C142.266 68.8073 144.272 64.2102 144.992 64.2582C145.501 64.2582 144.311 68.5578 144.579 68.9993C147.18 73.1741 148.006 78.2607 147.756 83.1746C147.46 87.9455 146.629 92.6681 145.28 97.2539" fill="#E0E0E0"/>
<path d="M145.28 97.2539C143.555 92.8196 142.219 88.2436 141.287 83.5776L145.28 97.2539Z" fill="#E0E0E0"/>
<path d="M159.311 136.517C155.766 136.543 152.351 135.182 149.797 132.723C147.242 130.264 145.752 126.903 145.644 123.359L144.32 79.019C143.581 67.1087 149.896 56.7532 161.816 56.3501H162.92C168.274 56.4841 173.382 58.6292 177.227 62.3584C181.072 66.0876 183.372 71.1277 183.669 76.4757C184.255 86.8025 184.763 98.2137 184.562 103.732C184.139 115.172 172.661 116.679 172.661 116.679C172.661 116.679 172.661 119.328 172.738 122.687C172.771 124.479 172.449 126.26 171.79 127.927C171.131 129.594 170.149 131.115 168.9 132.4C167.651 133.686 166.16 134.712 164.512 135.418C162.865 136.125 161.094 136.498 159.301 136.517H159.311Z" fill="#F4C3AE"/>
<path d="M172.68 116.814C167.393 116.662 162.26 114.997 157.891 112.015C157.891 112.015 161.317 120.422 172.757 119.693L172.68 116.814Z" fill="#CC937F"/>
<path d="M164.657 98.329C164.908 98.0568 165.217 97.8446 165.562 97.7081C165.906 97.5717 166.276 97.5146 166.646 97.5409C167.015 97.5673 167.374 97.6765 167.695 97.8605C168.017 98.0445 168.293 98.2985 168.503 98.6036C168.712 98.9088 168.851 99.2573 168.908 99.6232C168.964 99.9892 168.938 100.363 168.83 100.718C168.723 101.072 168.537 101.398 168.286 101.67C168.036 101.943 167.727 102.156 167.383 102.293C166.744 102.527 166.047 102.548 165.396 102.35C164.895 102.231 164.444 101.955 164.11 101.563C163.907 101.256 163.783 100.903 163.751 100.536C163.72 100.168 163.78 99.7992 163.928 99.4615C164.149 98.8934 164.521 98.3959 165.003 98.0219" fill="#CC937F"/>
<path d="M180.79 84.1536C180.785 84.5796 180.614 84.9869 180.312 85.2882C180.011 85.5895 179.604 85.7609 179.178 85.7659C178.969 85.7776 178.76 85.7473 178.564 85.6769C178.367 85.6065 178.186 85.4974 178.033 85.3561C177.879 85.2147 177.755 85.044 177.668 84.8539C177.581 84.6639 177.533 84.4584 177.527 84.2495C177.534 83.8242 177.707 83.4184 178.008 83.1176C178.308 82.8168 178.714 82.6446 179.139 82.6372C179.348 82.6256 179.557 82.6558 179.754 82.7262C179.95 82.7966 180.131 82.9057 180.285 83.0471C180.439 83.1884 180.563 83.3591 180.649 83.5492C180.736 83.7392 180.784 83.9447 180.79 84.1536Z" fill="#263238"/>
<path d="M181.145 82.0517C180.934 82.2533 179.715 81.3127 177.959 81.2743C176.203 81.236 174.888 82.0805 174.706 81.8694C174.523 81.6582 174.83 81.3895 175.406 80.996C176.179 80.4865 177.091 80.2284 178.017 80.257C178.93 80.2756 179.815 80.5849 180.541 81.14C181.069 81.5623 181.241 81.9558 181.145 82.0517Z" fill="#263238"/>
<path d="M164.331 84.1536C164.323 84.5805 164.15 84.9878 163.847 85.2888C163.544 85.5898 163.136 85.761 162.709 85.7659C162.501 85.7762 162.293 85.745 162.098 85.674C161.902 85.603 161.723 85.4937 161.57 85.3525C161.417 85.2113 161.294 85.041 161.208 84.8516C161.121 84.6622 161.074 84.4575 161.068 84.2495C161.073 83.8235 161.244 83.4162 161.545 83.1149C161.847 82.8136 162.254 82.6422 162.68 82.6372C162.889 82.6256 163.097 82.6558 163.294 82.7262C163.491 82.7966 163.671 82.9057 163.825 83.0471C163.979 83.1884 164.103 83.3591 164.19 83.5492C164.277 83.7392 164.325 83.9447 164.331 84.1536Z" fill="#263238"/>
<path d="M164.216 82.0613C164.014 82.2725 162.795 81.3223 161.039 81.2839C159.283 81.2456 157.968 82.0997 157.785 81.879C157.603 81.6582 157.901 81.3991 158.476 81.0056C159.25 80.4972 160.161 80.2392 161.087 80.2666C162.002 80.2916 162.888 80.6001 163.621 81.1496C164.148 81.5815 164.321 81.9654 164.216 82.0613Z" fill="#263238"/>
<path d="M169.868 95.2675C170.804 94.9924 171.772 94.8407 172.747 94.8164C173.198 94.8164 173.63 94.7012 173.707 94.3941C173.759 93.9323 173.665 93.4658 173.438 93.0601L172.152 89.5762C170.425 84.672 169.187 80.6315 169.379 80.5643C169.571 80.4971 171.145 84.4033 172.863 89.3363C173.285 90.5456 173.678 91.7069 174.053 92.8105C174.328 93.3567 174.396 93.9839 174.245 94.5765C174.176 94.7322 174.074 94.8702 173.944 94.98C173.814 95.0898 173.661 95.1685 173.496 95.2099C173.246 95.2772 172.987 95.3063 172.728 95.2963C171.777 95.4029 170.817 95.3932 169.868 95.2675Z" fill="#263238"/>
<path d="M164.667 96.3522C164.954 96.3522 164.906 98.2717 166.509 99.6441C168.112 101.017 170.147 100.882 170.156 101.151C170.156 101.266 169.696 101.506 168.841 101.516C167.721 101.5 166.641 101.092 165.789 100.364C164.975 99.6658 164.466 98.6776 164.369 97.6095C164.311 96.8129 164.532 96.3426 164.667 96.3522Z" fill="#263238"/>
<path d="M164.475 75.1803C164.283 75.6506 162.555 75.3819 160.473 75.5834C158.39 75.7849 156.72 76.3032 156.451 75.8713C156.336 75.6602 156.634 75.2187 157.325 74.7772C158.23 74.2188 159.258 73.8893 160.319 73.8175C161.376 73.7135 162.442 73.8649 163.429 74.259C164.129 74.5853 164.475 74.9692 164.475 75.1803Z" fill="#E0E0E0"/>
<path d="M180.569 77.0995C180.253 77.493 179.053 77.0995 177.594 76.9939C176.135 76.8884 174.897 77.1955 174.629 76.7732C174.504 76.5717 174.705 76.1782 175.262 75.8135C175.992 75.3735 176.839 75.1659 177.69 75.2184C178.548 75.2538 179.373 75.5557 180.051 76.0822C180.55 76.4469 180.713 76.8596 180.569 77.0995Z" fill="#E0E0E0"/>
<path d="M145.04 87.657C144.848 87.5706 137.237 85.1425 137.295 92.9739C137.352 100.805 145.203 99.1258 145.213 98.8955C145.222 98.6651 145.04 87.657 145.04 87.657Z" fill="#F4C3AE"/>
<path d="M142.804 95.9294C142.804 95.9294 142.669 96.0253 142.439 96.1309C142.113 96.2642 141.748 96.2642 141.422 96.1309C140.587 95.843 139.877 94.5281 139.829 93.1173C139.812 92.4579 139.94 91.8028 140.203 91.1979C140.273 90.9518 140.402 90.7267 140.579 90.5426C140.757 90.3584 140.977 90.2209 141.22 90.1421C141.376 90.097 141.543 90.109 141.691 90.1758C141.838 90.2427 141.957 90.3601 142.026 90.5068C142.132 90.7276 142.084 90.8811 142.122 90.8907C142.161 90.9003 142.295 90.766 142.228 90.4397C142.176 90.2476 142.065 90.0766 141.911 89.9502C141.805 89.8668 141.683 89.8066 141.553 89.7735C141.422 89.7404 141.286 89.7352 141.153 89.7583C140.833 89.8257 140.535 89.974 140.288 90.189C140.041 90.404 139.853 90.6786 139.742 90.9867C139.415 91.6646 139.26 92.413 139.291 93.1653C139.349 94.7489 140.164 96.2173 141.307 96.534C141.516 96.5933 141.737 96.6042 141.951 96.5659C142.165 96.5277 142.368 96.4413 142.545 96.3132C142.785 96.1213 142.833 95.9485 142.804 95.9294Z" fill="#CC937F"/>
<path d="M178.659 63.8937C179.917 63.1739 175.78 58.9703 172.661 57.6075C167.92 55.5536 160.712 54.3636 156.394 55.688C151.192 57.262 146.902 59.93 144.358 64.7287C141.909 69.6103 140.806 75.0568 141.163 80.5067C141.23 82.1575 138.091 83.1076 139.003 84.4992C140.107 86.1884 139.848 85.3918 141.738 87.7335C142.266 88.3958 143.092 89.1444 143.658 89.7778C145.136 91.4765 148.831 91.8124 149.627 90.3248C151.274 87.5421 152.176 84.3823 152.248 81.1498C152.315 78.7504 152.363 75.113 151.729 72.8001C151.491 71.9413 151.384 71.0515 151.413 70.1608C151.415 68.6985 151.842 67.2683 152.641 66.0435C152.853 65.7839 153.088 65.5431 153.342 65.3237C154.276 64.5257 155.402 63.9862 156.61 63.7589C157.817 63.5316 159.063 63.6244 160.223 64.0281C164.686 65.5061 168.285 67.9438 173.39 65.7556C174.266 65.2791 175.016 64.6015 175.579 63.7786C176.007 63.3992 176.563 63.1946 177.135 63.2053C177.707 63.2159 178.255 63.4411 178.669 63.8361L178.659 63.8937Z" fill="#E0E0E0"/>
<path d="M152.651 65.6403C153.914 64.9362 155.306 64.4943 156.744 64.3409C158.182 64.1875 159.636 64.3259 161.019 64.7478C163.352 65.4676 165.367 66.9648 167.613 67.9245C170.136 68.9688 172.889 69.3331 175.597 68.9811C178.305 68.6291 180.873 67.5732 183.045 65.9186C183.678 65.5089 184.218 64.9709 184.63 64.3393C185.041 63.7078 185.316 62.9968 185.435 62.2525C185.44 61.6232 185.303 61.0009 185.036 60.4312C184.769 59.8616 184.377 59.3591 183.89 58.9606C182.911 58.1758 181.79 57.5862 180.588 57.2235C175.081 55.4442 169.229 54.9969 163.515 55.9182C158.918 56.5708 154.225 58.0008 150.913 61.2351C150.458 61.6437 150.095 62.1442 149.848 62.7035C149.723 62.9924 149.676 63.3085 149.709 63.6214C149.743 63.9342 149.857 64.2329 150.04 64.4886C150.236 64.7324 150.52 64.8892 150.831 64.9251C151.142 64.9611 151.454 64.8732 151.7 64.6806" fill="#E0E0E0"/>
<path d="M183.228 83.6834C183.228 83.8177 182.806 83.9809 182.268 84.1536C181.731 84.3264 181.308 84.4703 181.222 84.3552C181.136 84.24 181.52 83.8849 182.105 83.6834C182.69 83.4818 183.218 83.549 183.228 83.6834Z" fill="#CC937F"/>
<path d="M183.9 84.9218C183.9 85.0562 183.314 85.085 182.642 85.0946C181.97 85.1042 181.404 85.0946 181.385 84.9218C181.366 84.7491 181.922 84.5859 182.642 84.5859C183.362 84.5859 183.919 84.7779 183.9 84.9218Z" fill="#CC937F"/>
<path d="M156.633 84.2017C156.633 84.3457 155.856 84.3745 154.916 84.3745C153.975 84.3745 153.207 84.3745 153.198 84.2017C153.188 84.029 153.946 83.8658 154.916 83.8754C155.885 83.885 156.653 84.0674 156.633 84.2017Z" fill="#CC937F"/>
<path d="M156.538 85.7849C156.538 85.9289 155.847 85.9097 155.04 85.9097C154.234 85.9097 153.582 85.9097 153.553 85.7945C153.524 85.6794 154.186 85.4106 155.04 85.4106C155.895 85.4106 156.566 85.6602 156.538 85.7849Z" fill="#CC937F"/>
<path d="M163.764 88.3476C163.764 88.3476 163.544 88.7027 162.977 89.0194C162.23 89.418 161.383 89.5882 160.54 89.5089C159.692 89.4195 158.889 89.0861 158.227 88.5492C157.737 88.1269 157.545 87.7718 157.593 87.7334C158.483 88.3736 159.507 88.8035 160.588 88.9906C161.681 89.0118 162.765 88.7923 163.764 88.3476Z" fill="#CC937F"/>
<path d="M164.561 87.9639C164.618 88.0886 163.783 88.5205 162.641 88.5205C162.301 88.5624 161.956 88.5355 161.626 88.4415C161.297 88.3476 160.989 88.1884 160.722 87.9735C160.722 87.8391 161.605 88.031 162.641 87.9735C163.678 87.9159 164.474 87.8295 164.561 87.9639Z" fill="#CC937F"/>
<path d="M181.558 86.8695C180.709 87.4083 179.745 87.738 178.743 87.8314C177.742 87.9249 176.733 87.7794 175.8 87.407C175.8 87.263 177.105 87.4837 178.679 87.3302C180.253 87.1766 181.5 86.6968 181.558 86.8695Z" fill="#CC937F"/>
<path d="M180.704 87.4746C180.057 88.1947 179.19 88.6797 178.238 88.8534C177.286 89.0271 176.303 88.8797 175.444 88.4343C176.347 88.4768 177.251 88.4575 178.151 88.3768C179.021 88.1321 179.873 87.8307 180.704 87.4746Z" fill="#CC937F"/>
<path d="M177.057 73.5294C176.421 73.7842 175.752 73.9458 175.07 74.0093C173.447 74.2493 171.805 74.3361 170.166 74.2684C168.526 74.2043 166.897 73.9825 165.3 73.6062C164.63 73.5017 163.981 73.2877 163.38 72.9728C163.38 72.8192 166.413 73.635 170.204 73.7694C173.995 73.9037 177.028 73.3759 177.057 73.5294Z" fill="#CC937F"/>
<path d="M178.247 72.1572C174.056 72.9631 169.75 72.9631 165.559 72.1572C165.559 72.0132 168.438 72.2819 171.903 72.2819C175.368 72.2819 178.228 72.0132 178.247 72.1572Z" fill="#CC937F"/>
<path d="M169.321 77.8301C169.177 77.8301 169.139 77.4651 169.12 77.0714C169.101 76.6777 169.12 76.3319 169.264 76.2935C169.408 76.2551 169.61 76.5912 169.619 77.0522C169.629 77.5131 169.446 77.8685 169.321 77.8301Z" fill="#CC937F"/>
<path d="M171.731 78.1472C171.683 78.2721 171.126 78.1472 170.895 77.4942C170.665 76.8412 170.943 76.3802 171.068 76.4474C171.193 76.5146 171.183 76.8892 171.356 77.3117C171.529 77.7343 171.798 78.0608 171.731 78.1472Z" fill="#CC937F"/>
<path d="M164.407 95.8531C164.407 95.9971 163.851 96.0834 163.361 96.4961C162.872 96.9088 162.651 97.4558 162.517 97.3791C162.382 97.3023 162.382 96.6401 163.045 96.1026C163.707 95.5652 164.475 95.7187 164.407 95.8531Z" fill="#CC937F"/>
<path d="M162.354 95.7088C162.354 95.8433 162.028 95.9201 161.807 96.189C161.586 96.4579 161.528 96.746 161.394 96.794C161.259 96.842 161.24 96.7268 161.211 96.5347C161.196 96.4133 161.208 96.29 161.246 96.1738C161.284 96.0575 161.348 95.9512 161.432 95.8625C161.511 95.7675 161.609 95.6907 161.72 95.6376C161.831 95.5846 161.952 95.5564 162.076 95.5552C162.268 95.5552 162.364 95.6416 162.354 95.7088Z" fill="#CC937F"/>
<path d="M154.925 126.344C154.925 126.344 154.695 126.344 154.388 126.075C153.98 125.699 153.715 125.194 153.639 124.645C153.516 123.853 153.548 123.044 153.735 122.265C153.975 121.392 153.975 120.47 153.735 119.597C153.572 119.174 153.255 118.781 153.063 118.282C152.904 117.799 152.904 117.277 153.063 116.794C153.171 116.434 153.171 116.051 153.063 115.691C152.935 115.372 152.771 115.07 152.574 114.788C152.403 114.565 152.286 114.305 152.232 114.028C152.179 113.752 152.191 113.466 152.267 113.195C152.43 112.792 152.699 112.744 152.699 112.773C152.699 112.802 152.526 112.917 152.449 113.243C152.422 113.486 152.445 113.731 152.518 113.964C152.59 114.197 152.711 114.413 152.871 114.596C153.105 114.891 153.302 115.214 153.457 115.556C153.591 115.994 153.591 116.462 153.457 116.9C153.327 117.292 153.327 117.717 153.457 118.109C153.61 118.512 153.918 118.896 154.129 119.414C154.412 120.373 154.412 121.393 154.129 122.351C153.933 123.079 153.865 123.836 153.927 124.587C153.971 125.081 154.158 125.551 154.465 125.941C154.762 126.209 154.944 126.305 154.925 126.344Z" fill="#CC937F"/>
<path d="M159.897 127.294C159.897 127.294 159.647 127.294 159.302 127.092C158.848 126.732 158.514 126.244 158.342 125.691C157.725 123.979 157.294 122.206 157.056 120.403C157.007 119.88 156.991 119.354 157.008 118.829C157.04 118.365 157.04 117.9 157.008 117.437C157.008 116.573 156.144 116.276 155.597 115.777C155.328 115.552 155.148 115.239 155.088 114.894C155.073 114.758 155.089 114.621 155.136 114.493C155.183 114.365 155.258 114.249 155.357 114.155C155.712 113.838 156.01 114.03 155.971 114.049C155.933 114.068 155.722 114.049 155.501 114.289C155.438 114.366 155.393 114.456 155.368 114.552C155.344 114.648 155.34 114.748 155.357 114.846C155.439 115.111 155.604 115.343 155.827 115.508C156.077 115.719 156.413 115.882 156.787 116.141C156.983 116.289 157.147 116.475 157.269 116.688C157.391 116.9 157.469 117.136 157.497 117.38C157.536 117.868 157.536 118.359 157.497 118.848C157.488 119.351 157.507 119.854 157.555 120.355C157.798 122.121 158.173 123.866 158.678 125.576C158.796 126.084 159.044 126.554 159.398 126.938C159.676 127.198 159.906 127.255 159.897 127.294Z" fill="#CC937F"/>
<path d="M162.094 51.3213C162.231 51.2263 162.38 51.1489 162.536 51.091C162.837 50.9438 163.278 50.7615 163.86 50.5439C165.513 49.9535 167.23 49.5636 168.976 49.3827C171.573 49.0997 174.199 49.2652 176.74 49.8721C178.258 50.2023 179.719 50.7519 181.078 51.5037C182.591 52.283 183.822 53.5166 184.599 55.0313C185.375 56.5461 185.657 58.2659 185.406 59.9493C185.22 61.5085 184.675 63.0031 183.813 64.3161C183.024 65.4819 181.993 66.4639 180.79 67.1953C179.754 67.8526 178.62 68.3417 177.431 68.6445C175.726 69.0944 173.952 69.2214 172.2 69.0188C171.726 68.9649 171.255 68.8848 170.79 68.7789C170.624 68.7533 170.462 68.7049 170.31 68.6349C170.31 68.6349 170.991 68.7405 172.229 68.8269C173.955 68.9439 175.687 68.7687 177.354 68.3086C178.497 67.9891 179.584 67.4972 180.579 66.8498C181.728 66.1237 182.709 65.162 183.458 64.0282C184.265 62.7671 184.777 61.34 184.955 59.8534C185.183 58.2657 184.911 56.6467 184.179 55.2198C183.447 53.7929 182.289 52.6286 180.867 51.8876C179.548 51.1564 178.133 50.6137 176.663 50.2752C174.17 49.6576 171.591 49.463 169.033 49.6994C167.308 49.8368 165.603 50.1585 163.947 50.6591C162.747 51.1006 162.114 51.3693 162.094 51.3213Z" fill="white"/>
<path d="M188.775 56.3887C188.97 57.0108 188.993 57.6739 188.842 58.3081C188.547 59.8559 187.845 61.2971 186.808 62.483C185.789 63.652 184.61 64.67 183.305 65.5062C182.804 65.9049 182.248 66.2283 181.654 66.4659C182.085 65.999 182.572 65.5865 183.103 65.2374C184.309 64.3268 185.425 63.3015 186.433 62.1759C187.403 61.0365 188.099 59.6906 188.468 58.241C188.765 57.1277 188.689 56.3983 188.775 56.3887Z" fill="white"/>
<path d="M159.676 57.7705C157.511 58.4644 155.444 59.432 153.524 60.6497C152.008 61.7438 150.645 62.8763 150.213 63.9896C149.981 64.6012 149.914 65.2635 150.021 65.9091C150.021 65.9091 149.867 65.7651 149.781 65.41C149.665 64.8995 149.698 64.3664 149.877 63.8744C150.309 62.5788 151.681 61.3695 153.236 60.2466C154.622 59.3078 156.147 58.5951 157.756 58.1352C158.369 57.8996 159.019 57.7761 159.676 57.7705Z" fill="white"/>
<path d="M152.142 56.187C152.142 56.2446 151.729 56.6093 151.019 57.1947C150.076 57.92 149.259 58.7955 148.601 59.786C147.97 60.7729 147.68 61.9393 147.775 63.1067C147.864 63.5925 147.98 64.073 148.121 64.5463C148.121 64.5463 147.631 64.1336 147.43 63.1643C147.215 61.899 147.479 60.5992 148.169 59.5173C148.864 58.4887 149.762 57.6133 150.808 56.9452C151.2 56.6094 151.653 56.352 152.142 56.187Z" fill="white"/>
<path d="M136.537 70.3046C136.703 69.7206 137.006 69.1845 137.42 68.7402C138.332 67.5857 139.527 66.686 140.889 66.1278C142.25 65.5697 143.733 65.372 145.193 65.5539C145.801 65.5766 146.395 65.748 146.921 66.053C146.921 66.1297 146.24 65.957 145.165 65.909C143.769 65.827 142.372 66.0595 141.078 66.5894C139.784 67.1193 138.626 67.9331 137.688 68.9706C136.959 69.7575 136.642 70.3814 136.537 70.3046Z" fill="white"/>
<path d="M142.247 74.3646C141.992 73.9503 141.868 73.4685 141.892 72.9826C141.836 71.807 142.178 70.647 142.863 69.6894C143.547 68.7319 144.533 68.0325 145.664 67.704C146.115 67.5222 146.611 67.4853 147.084 67.5984C146.657 67.769 146.221 67.9163 145.779 68.0399C144.768 68.4236 143.894 69.0976 143.265 69.9771C142.637 70.8565 142.283 71.9022 142.247 72.9826C142.271 73.4429 142.271 73.9042 142.247 74.3646Z" fill="white"/>
<path d="M191.865 73.9037C191.31 74.0855 190.714 74.1055 190.147 73.9613C188.747 73.744 187.456 73.0735 186.473 72.0524C185.491 71.0314 184.87 69.7162 184.706 68.3084C184.587 67.7392 184.627 67.1483 184.821 66.6001C184.907 66.6001 184.821 67.2527 185.051 68.2508C185.298 69.5501 185.917 70.7494 186.834 71.7022C187.751 72.655 188.926 73.32 190.215 73.6158C191.213 73.8557 191.856 73.8269 191.865 73.9037Z" fill="white"/>
<path d="M191.731 77.4165C190.285 77.7819 188.765 77.7185 187.355 77.2341C185.889 76.9122 184.552 76.1604 183.516 75.0747C184.792 75.7217 186.109 76.2828 187.46 76.7542C188.869 77.0608 190.295 77.2819 191.731 77.4165Z" fill="white"/>
<path d="M179.158 118.272C180.377 118.272 193.324 116.545 201.232 121.756C209.141 126.967 230.408 167.315 230.408 167.315C230.408 167.315 236.896 188.784 227.779 193.035C218.661 197.287 194.562 210.253 194.562 210.253L188.689 188.985L205.302 181.308V160.798L179.158 118.272Z" fill="#455A64"/>
<path d="M205.302 162.564L214.237 163.053C216.656 163.187 219.017 163.849 221.154 164.991C223.291 166.133 225.152 167.729 226.608 169.666L232.366 177.401C232.366 177.401 235.447 181.404 234.545 183.16C233.806 184.599 232.347 184.484 230.936 183.217C229.525 181.951 225.024 175.338 225.024 175.338C225.024 175.338 233.316 185.953 231.426 187.911C229.535 189.868 227.414 187.296 227.414 187.296C227.414 187.296 228.681 191.385 226.147 190.963C223.613 190.54 220.571 186.74 220.571 186.74C220.571 186.74 220.945 189.129 218.651 188.851C216.358 188.573 209.783 178.428 209.217 178.428C208.651 178.428 205.705 178.15 205.705 178.15L205.302 162.564Z" fill="#CE947A"/>
<path d="M221.617 171.969C222.87 173.084 224.012 174.318 225.024 175.655C226.161 176.886 227.174 178.226 228.047 179.657C226.794 178.542 225.653 177.308 224.64 175.971C223.506 174.738 222.493 173.398 221.617 171.969Z" fill="#A56349"/>
<path d="M218.988 176.327C219.497 176.832 219.954 177.389 220.35 177.987C221.147 179.052 222.27 180.511 223.498 182.104C224.727 183.697 225.898 185.118 226.733 186.154C227.227 186.679 227.658 187.258 228.019 187.882C227.443 187.446 226.922 186.943 226.464 186.385C225.562 185.425 224.352 184.014 223.105 182.411C221.857 180.809 220.792 179.311 220.062 178.198C219.625 177.623 219.264 176.994 218.988 176.327Z" fill="#A56349"/>
<path d="M215.955 180.847C217.057 181.58 217.997 182.53 218.719 183.64C219.583 184.648 220.236 185.82 220.638 187.085C220.514 187.153 219.631 185.646 218.345 183.938C217.496 182.949 216.699 181.917 215.955 180.847Z" fill="#A56349"/>
<path d="M199.572 139.31C199.486 139.31 199.63 138.235 199.572 136.517C199.483 134.289 199.042 132.09 198.267 130C197.477 127.916 196.36 125.972 194.956 124.242C193.871 122.917 193.036 122.207 193.123 122.14C193.209 122.073 193.363 122.265 193.737 122.572C194.268 123.014 194.765 123.495 195.225 124.011C196.74 125.72 197.93 127.691 198.737 129.827C199.547 131.973 199.951 134.252 199.927 136.545C199.921 137.233 199.863 137.92 199.755 138.599C199.734 138.845 199.672 139.085 199.572 139.31Z" fill="#263238"/>
<path d="M143.418 132.304C143.418 132.304 155.117 139.022 163.995 137.102C169.655 135.69 174.869 132.878 179.158 128.925L194.86 164.867L185.56 236.847L157.507 240.504L148.207 172.219L143.418 132.304Z" fill="#FAFAFA"/>
<path d="M142.545 119.616L136.45 121.756L125.183 195.252C125.183 195.252 116.488 225.858 117.246 239.083C118.004 252.309 125.125 293.27 125.125 293.27L176.529 287.857L174.398 207.431C174.398 207.431 178.103 184.283 167.123 170.271C156.144 156.258 142.545 119.616 142.545 119.616Z" fill="#455A64"/>
<path d="M172.028 117.994C172.738 119.011 183.976 161.719 182.767 170.712C181.558 179.705 175.012 198.544 175.012 198.544V287.588L220.369 283.442C220.369 283.442 224.084 250.936 220.369 235.369C216.655 219.802 211.242 201.366 211.242 201.366L207.663 147.016L184.84 117.994H172.028Z" fill="#455A64"/>
<path d="M222.577 263.557C222.485 263.523 222.398 263.478 222.318 263.422L221.588 262.981C220.936 262.587 219.995 262.021 218.709 261.349C217.183 260.535 215.532 259.98 213.824 259.708C212.763 259.565 211.685 259.607 210.638 259.833C209.474 260.133 208.361 260.605 207.336 261.234C206.252 261.887 205.177 262.683 204.054 263.518L200.541 266.11C198.113 267.885 195.541 269.814 192.777 271.801C191.378 272.884 189.727 273.594 187.978 273.864C186.121 273.915 184.281 273.503 182.623 272.665C179.254 271.139 175.771 269.622 172.133 268.192C170.31 267.482 168.515 266.772 166.72 266.186C164.977 265.567 163.138 265.258 161.288 265.275C159.511 265.376 157.793 265.945 156.307 266.925C154.872 267.87 153.543 268.967 152.344 270.198C149.935 272.54 147.737 274.997 145.011 276.465C144.682 276.652 144.339 276.813 143.984 276.945C143.648 277.109 143.293 277.235 142.929 277.319C142.236 277.549 141.517 277.688 140.788 277.732C139.436 277.812 138.08 277.728 136.748 277.483C132.754 276.725 128.881 275.434 125.231 273.644C123.926 273.049 122.928 272.55 122.256 272.214L121.488 271.83C121.315 271.734 121.229 271.686 121.239 271.676L121.517 271.782L122.294 272.127L125.308 273.471C128.976 275.178 132.846 276.414 136.825 277.147C138.132 277.378 139.463 277.449 140.788 277.358C141.488 277.309 142.178 277.171 142.842 276.945C143.174 276.858 143.496 276.735 143.802 276.58C144.131 276.444 144.452 276.287 144.762 276.11C147.391 274.69 149.56 272.271 151.969 269.881C153.188 268.62 154.539 267.493 156 266.522C157.553 265.501 159.347 264.906 161.202 264.795C163.115 264.783 165.016 265.108 166.816 265.755C168.64 266.359 170.435 267.069 172.258 267.77C175.895 269.2 179.408 270.736 182.758 272.262C184.339 273.072 186.097 273.474 187.873 273.432C189.553 273.197 191.145 272.536 192.499 271.513L200.282 265.87L203.804 263.307C204.878 262.493 205.993 261.734 207.144 261.033C208.199 260.386 209.349 259.91 210.551 259.622C211.634 259.395 212.749 259.363 213.843 259.526C215.58 259.817 217.252 260.408 218.786 261.273C219.756 261.795 220.698 262.369 221.608 262.991L222.318 263.47C222.5 263.49 222.587 263.547 222.577 263.557Z" fill="#FAFAFA"/>
<path d="M161.471 195.233C161.72 195.147 169.542 190.866 171.519 190.617C173.496 190.367 188.871 189.657 188.871 189.657L192.979 204.543C192.979 204.543 180.166 210.752 178.189 211.261C176.212 211.77 167.815 214.802 166.413 214.802C165.012 214.802 161.058 213.478 161.058 212.576C161.04 212.337 161.083 212.098 161.184 211.881C161.285 211.664 161.44 211.477 161.634 211.338C163.425 211.402 165.219 211.293 166.989 211.011C167.916 210.681 168.823 210.297 169.705 209.86C169.705 209.86 155.626 212 154.637 211.664C153.649 211.328 152.91 209.274 152.91 209.274C152.91 209.274 151.259 208.123 151.096 207.057C150.933 205.992 151.509 205.493 152.411 205.08C153.313 204.667 159.407 201.951 161.221 201.452C163.035 200.953 167.815 200.138 167.815 200.138C167.815 200.138 153.313 201.702 152.459 201.289C151.605 200.877 150.539 199.312 152.046 198.41C153.847 197.254 155.819 196.392 157.891 195.857C159.494 195.56 161.471 195.233 161.471 195.233Z" fill="#F4C3AE"/>
<path d="M171.778 204.092C170.913 204.554 170.003 204.927 169.062 205.205C167.354 205.81 164.964 206.558 162.277 207.24C159.59 207.921 157.133 208.382 155.348 208.66C154.384 208.855 153.404 208.961 152.42 208.977C153.361 208.681 154.324 208.46 155.3 208.315C157.066 207.95 159.503 207.422 162.181 206.75C164.859 206.078 167.239 205.387 168.976 204.831C169.891 204.517 170.827 204.27 171.778 204.092Z" fill="#CC937F"/>
<path d="M170.425 193.007C169.016 193.579 167.548 193.994 166.049 194.245C164.586 194.658 163.084 194.909 161.567 194.993C162.976 194.422 164.443 194.007 165.943 193.755C167.405 193.344 168.908 193.093 170.425 193.007Z" fill="#CC937F"/>
<path d="M189.178 195.57C188.986 195.612 188.79 195.638 188.593 195.646C188.077 195.768 187.582 195.966 187.124 196.232C186.41 196.687 185.59 196.948 184.744 196.99C183.784 196.932 182.825 196.395 182.057 197.047C181.673 197.411 181.252 197.733 180.8 198.007C180.314 198.209 179.779 198.259 179.264 198.151C178.304 197.959 177.594 197.595 176.932 197.556C176.427 197.498 175.919 197.643 175.521 197.959C175.252 198.199 175.195 198.42 175.156 198.401C175.118 198.382 175.156 198.151 175.377 197.825C175.578 197.612 175.823 197.447 176.095 197.339C176.367 197.231 176.659 197.184 176.951 197.201C177.754 197.315 178.549 197.478 179.331 197.691C179.754 197.772 180.192 197.725 180.588 197.556C181.006 197.288 181.401 196.987 181.769 196.654C181.999 196.471 182.268 196.342 182.556 196.28C182.832 196.232 183.115 196.232 183.391 196.28C183.909 196.356 184.351 196.51 184.773 196.539C185.544 196.512 186.297 196.301 186.971 195.925C187.47 195.668 188.014 195.512 188.573 195.464C188.977 195.445 189.188 195.541 189.178 195.57Z" fill="#CC937F"/>
<path d="M189.332 198.622C188.924 199.161 188.345 199.546 187.691 199.716C186.998 199.958 186.258 200.034 185.531 199.936C185.147 199.854 184.753 199.821 184.36 199.84C184.174 199.873 183.997 199.948 183.844 200.059C183.691 200.171 183.566 200.316 183.477 200.483C183.211 200.911 182.798 201.228 182.316 201.376C181.877 201.471 181.422 201.471 180.982 201.376C180.316 201.207 179.634 201.104 178.947 201.069C178.507 201.083 178.088 201.257 177.767 201.558C177.556 201.789 177.508 201.971 177.46 201.961C177.412 201.952 177.412 201.75 177.613 201.443C177.768 201.238 177.964 201.067 178.189 200.941C178.414 200.815 178.662 200.738 178.919 200.714C179.635 200.694 180.351 200.765 181.049 200.925C181.427 201.014 181.822 200.986 182.184 200.846C182.545 200.705 182.856 200.458 183.074 200.138C183.217 199.935 183.385 199.751 183.573 199.591C183.787 199.432 184.038 199.332 184.303 199.303C184.738 199.286 185.174 199.328 185.598 199.428C186.263 199.54 186.944 199.507 187.595 199.332C188.19 199.137 188.771 198.9 189.332 198.622Z" fill="#CC937F"/>
<path d="M146.307 205.013C145.958 205.074 145.604 205.09 145.251 205.061C144.835 205.063 144.418 205.044 144.003 205.004C143.524 204.956 142.967 204.927 142.362 204.821C140.944 204.599 139.542 204.279 138.168 203.862C136.487 203.342 134.84 202.721 133.235 202C130.344 200.665 127.568 199.096 124.934 197.307C123.916 196.625 123.12 196.059 122.573 195.646C122.273 195.454 121.999 195.225 121.757 194.965C122.099 195.093 122.422 195.268 122.717 195.483L125.125 197.067C127.798 198.758 130.577 200.275 133.446 201.606C135.029 202.333 136.651 202.974 138.303 203.526C139.652 203.952 141.027 204.292 142.42 204.543C144.8 204.898 146.316 204.917 146.307 205.013Z" fill="#263238"/>
<path d="M156.211 217.758C155.669 217.694 155.133 217.585 154.608 217.432C153.981 217.301 153.362 217.131 152.756 216.923C152.036 216.703 151.211 216.472 150.338 216.127C148.261 215.364 146.232 214.477 144.263 213.468C141.864 212.211 139.538 210.821 137.295 209.303C133.245 206.504 129.435 203.374 125.903 199.946C124.55 198.64 123.484 197.546 122.774 196.769C122.387 196.385 122.031 195.971 121.709 195.531C122.14 195.863 122.545 196.229 122.918 196.625C123.667 197.364 124.77 198.42 126.152 199.686C129.732 203.023 133.549 206.096 137.573 208.881C139.801 210.386 142.104 211.777 144.474 213.046C146.416 214.071 148.416 214.984 150.462 215.781C151.326 216.146 152.132 216.405 152.833 216.655C153.534 216.904 154.148 217.096 154.656 217.24C155.187 217.375 155.706 217.548 156.211 217.758Z" fill="#263238"/>
<path d="M209.774 179.081C208.814 179.656 207.814 180.16 206.78 180.588C204.86 181.461 202.279 182.632 199.371 183.87C196.463 185.108 193.814 186.193 191.875 186.922C190.915 187.287 190.109 187.575 189.562 187.757C189.285 187.879 188.99 187.957 188.689 187.987C189.673 187.455 190.693 186.99 191.741 186.596L199.179 183.409L206.636 180.262C207.65 179.789 208.7 179.394 209.774 179.081Z" fill="#263238"/>
<path d="M190.502 138.811C190.502 138.811 190.637 138.916 190.848 139.146L191.75 140.173C192.537 141.047 193.67 142.294 195.205 143.782C196.741 145.27 198.516 147.007 200.464 149.022C202.612 151.19 204.505 153.595 206.108 156.191C207.674 158.843 208.702 161.779 209.131 164.829C209.496 167.622 209.611 170.136 209.707 172.248C209.803 174.359 209.822 176.087 209.831 177.258C209.831 177.805 209.831 178.217 209.831 178.62C209.842 178.782 209.826 178.944 209.784 179.1C209.746 178.943 209.727 178.782 209.726 178.62C209.726 178.256 209.697 177.805 209.64 177.267C209.572 176.01 209.476 174.321 209.361 172.267C209.246 170.213 209.073 167.651 208.68 164.896C208.236 161.92 207.219 159.059 205.685 156.47C204.106 153.904 202.245 151.522 200.138 149.368C198.219 147.333 196.414 145.586 194.956 144.051C193.497 142.515 192.355 141.229 191.606 140.317L190.781 139.233C190.67 139.105 190.576 138.963 190.502 138.811Z" fill="#263238"/>
<path d="M226.857 193.439C226.4 193.752 225.922 194.034 225.427 194.284L221.435 196.453C218.056 198.257 213.373 200.723 208.19 203.411C202.864 206.184 198.046 208.651 194.629 210.369L194.437 210.474L194.38 210.263C193.938 208.545 193.574 207.125 193.305 206.05C193.152 205.544 193.04 205.028 192.969 204.505C193.184 204.988 193.358 205.489 193.487 206.002C193.794 207.067 194.217 208.468 194.716 210.177L194.466 210.062C197.844 208.257 202.634 205.733 207.96 202.969C213.287 200.205 217.855 197.863 221.272 196.136L225.331 194.111C225.82 193.843 226.33 193.618 226.857 193.439Z" fill="#263238"/>
<path d="M176.289 211.895C176.312 212.153 176.312 212.413 176.289 212.672C176.289 213.219 176.193 213.958 176.116 214.879C175.934 216.799 175.8 219.572 175.627 223.008C175.32 229.87 175.233 239.324 175.396 249.881C175.56 260.438 175.886 269.872 176.164 276.753C176.299 280.151 176.414 282.925 176.491 284.892C176.491 285.852 176.548 286.562 176.567 287.109C176.593 287.367 176.593 287.628 176.567 287.886C176.514 287.634 176.482 287.377 176.471 287.119C176.471 286.562 176.366 285.833 176.299 284.911C176.164 282.992 175.991 280.208 175.809 276.773C175.444 269.901 175.051 260.4 174.897 249.9C174.744 239.401 174.897 229.89 175.272 223.027C175.492 219.592 175.675 216.808 175.924 214.899C176.03 213.939 176.116 213.248 176.183 212.701C176.194 212.429 176.229 212.16 176.289 211.895Z" fill="#263238"/>
<path d="M136.45 121.756C136.45 121.756 119.492 128.992 114.261 140.461C109.031 151.93 98.3008 188.342 98.0513 195.07C97.8018 201.798 110.269 222.749 110.269 222.749L129.972 210.272L126.229 201.049L132.208 161.403L136.45 121.756Z" fill="#455A64"/>
<path d="M128.36 429.572C128.045 429.572 127.734 429.51 127.443 429.389C127.152 429.269 126.889 429.092 126.666 428.869C126.444 428.646 126.269 428.381 126.149 428.09C126.03 427.799 125.969 427.487 125.97 427.173C125.97 425.253 126.267 233.604 126.181 230.504C125.999 223.901 121.977 220.906 121.805 220.743C121.309 220.366 120.979 219.81 120.886 219.194C120.793 218.578 120.943 217.95 121.304 217.442C121.666 216.935 122.211 216.588 122.824 216.475C123.436 216.362 124.069 216.492 124.588 216.837C124.837 217.02 130.73 221.281 130.98 230.369C131.066 233.537 130.778 419.274 130.769 427.173C130.766 427.81 130.511 428.42 130.06 428.87C129.608 429.32 128.997 429.572 128.36 429.572Z" fill="#263238"/>
<path d="M114.741 244.756C114.106 244.751 113.498 244.495 113.05 244.043C112.603 243.592 112.351 242.982 112.351 242.347C112.351 235.226 112.351 224.409 112.351 223.776C112.329 223.464 112.369 223.15 112.469 222.854C112.568 222.557 112.726 222.283 112.932 222.047C113.138 221.812 113.389 221.619 113.67 221.481C113.951 221.343 114.256 221.262 114.568 221.242C115.208 221.208 115.836 221.426 116.317 221.849C116.798 222.273 117.094 222.868 117.14 223.507C117.14 223.613 117.14 223.949 117.14 242.356C117.14 242.993 116.888 243.603 116.438 244.053C115.988 244.503 115.377 244.756 114.741 244.756Z" fill="#263238"/>
<path d="M118.407 210.666L113.762 214.735C112.601 215.753 111.142 224.755 111.142 224.755C111.142 224.755 116.229 230.197 118.407 230.417C119.82 230.495 121.212 230.054 122.323 229.179C122.323 229.179 124.502 230.417 125.816 229.333C127.131 228.248 123.993 221.194 123.993 221.194C123.993 221.194 122.822 217.787 126.133 217.998L127.554 220.551L131.114 226.646C131.114 226.646 133.293 226.348 133.657 225.264C134.022 224.179 132.698 220.551 132.698 220.551C133.106 219.924 133.375 219.217 133.488 218.477C133.601 217.737 133.554 216.982 133.35 216.261C132.554 214.15 131.249 210.301 127.4 209.438C123.551 208.574 118.407 210.666 118.407 210.666Z" fill="#F4C3AE"/>
<path d="M122.15 228.306C122.083 228.354 121.498 227.586 120.423 226.464C119.017 225.017 117.456 223.729 115.768 222.625C115.262 222.275 114.831 221.828 114.501 221.31C114.214 220.786 114.11 220.182 114.204 219.592C114.382 218.65 114.813 217.774 115.451 217.058C115.96 216.444 116.411 215.983 116.641 215.638C116.872 215.292 117.044 215.1 117.073 215.119C116.769 215.914 116.316 216.644 115.739 217.269C115.182 217.957 114.812 218.777 114.664 219.649C114.592 220.135 114.683 220.632 114.923 221.06C115.223 221.52 115.611 221.915 116.066 222.222C117.778 223.355 119.331 224.714 120.682 226.262C121.274 226.864 121.769 227.553 122.15 228.306Z" fill="#CC937F"/>
<path d="M128.59 216.875C128.696 216.971 128.12 217.691 127.88 218.737C127.64 219.783 127.784 220.657 127.65 220.724C127.515 220.791 127.093 219.822 127.391 218.622C127.688 217.422 128.504 216.77 128.59 216.875Z" fill="#CC937F"/>
<path d="M102.639 191.596C103.092 191.559 103.548 191.559 104.002 191.596C104.443 191.596 104.961 191.596 105.604 191.596L107.716 191.865C108.503 191.97 109.328 192.22 110.24 192.421C110.691 192.537 111.133 192.719 111.603 192.882C112.091 193.032 112.569 193.215 113.033 193.429C115.117 194.352 117.056 195.57 118.791 197.047C120.51 198.522 122.091 200.151 123.513 201.913C124.838 203.516 125.951 205.013 126.901 206.251C127.851 207.489 128.629 208.507 129.176 209.13C129.482 209.471 129.758 209.837 130.001 210.224C129.649 209.938 129.328 209.617 129.041 209.265C128.446 208.612 127.621 207.643 126.642 206.386C125.663 205.128 124.502 203.698 123.168 202.124C121.745 200.395 120.178 198.79 118.484 197.326C116.793 195.876 114.906 194.671 112.879 193.746C112.43 193.533 111.969 193.347 111.497 193.189C111.037 193.026 110.605 192.834 110.163 192.709C109.271 192.498 108.464 192.239 107.697 192.105L105.614 191.769C105 191.702 104.472 191.682 104.031 191.644C103.566 191.678 103.1 191.662 102.639 191.596Z" fill="#263238"/>
<path d="M128.59 157.612C128.556 158.179 128.482 158.744 128.37 159.301C128.197 160.376 127.928 161.931 127.583 163.85C126.834 167.766 125.836 173.025 124.703 178.832C123.571 184.638 122.717 189.993 122.16 193.861C121.891 195.723 121.671 197.268 121.507 198.429C121.456 198.995 121.363 199.557 121.229 200.109C121.213 199.541 121.242 198.973 121.315 198.41C121.402 197.316 121.575 195.752 121.805 193.813C122.275 189.974 123.11 184.6 124.214 178.736C125.318 172.872 126.431 167.612 127.218 163.783L128.178 159.263C128.27 158.702 128.408 158.15 128.59 157.612Z" fill="#263238"/>
<path d="M133.264 431.319H124.262L125.932 424.159H131.258L133.264 431.319Z" fill="#455A64"/>
</svg>
